G04*
G04 #@! TF.GenerationSoftware,Altium Limited,Altium Designer,23.3.1 (30)*
G04*
G04 Layer_Physical_Order=1*
G04 Layer_Color=255*
%FSLAX25Y25*%
%MOIN*%
G70*
G04*
G04 #@! TF.SameCoordinates,C0566122-47CB-4EAD-8267-09603FDD0119*
G04*
G04*
G04 #@! TF.FilePolarity,Positive*
G04*
G01*
G75*
%ADD12C,0.00600*%
%ADD15C,0.01000*%
%ADD37R,0.04488X0.05000*%
%ADD38R,0.03543X0.03937*%
%ADD39R,0.07480X0.01575*%
%ADD40R,0.05000X0.04488*%
%ADD41R,0.11024X0.08661*%
%ADD42R,0.02165X0.05906*%
%ADD43R,0.05906X0.02165*%
%ADD44R,0.04921X0.04331*%
%ADD45R,0.05610X0.09843*%
%ADD46R,0.01575X0.06890*%
%ADD47R,0.03110X0.01024*%
%ADD48R,0.01024X0.03110*%
%ADD49R,0.10433X0.06890*%
%ADD50C,0.01300*%
%ADD51C,0.01299*%
%ADD52C,0.01200*%
%ADD53C,0.03543*%
%ADD54C,0.05937*%
%ADD55R,0.05937X0.05937*%
%ADD56C,0.07677*%
%ADD57C,0.05512*%
%ADD58O,0.04724X0.09449*%
%ADD59O,0.02874X0.05748*%
%ADD60C,0.05000*%
G36*
X386500Y110000D02*
X171355D01*
X171003Y110355D01*
X173000Y316500D01*
X386500D01*
Y110000D01*
D02*
G37*
%LPC*%
G36*
X294500Y305377D02*
X293973Y305272D01*
X293527Y304973D01*
X287027Y298473D01*
X286728Y298027D01*
X286624Y297500D01*
Y290070D01*
X279430Y282876D01*
X212012D01*
X211485Y282772D01*
X211038Y282473D01*
X210384Y281819D01*
X210349Y281840D01*
X209416Y282090D01*
X208450D01*
X207517Y281840D01*
X206680Y281357D01*
X205997Y280674D01*
X205515Y279837D01*
X205264Y278904D01*
Y277938D01*
X205515Y277005D01*
X205614Y276833D01*
X201135Y272353D01*
X200870Y271956D01*
X200777Y271488D01*
Y256000D01*
X200870Y255532D01*
X201135Y255135D01*
X205635Y250635D01*
X206032Y250370D01*
X206500Y250276D01*
X214993D01*
X217108Y248162D01*
X216916Y247700D01*
X212556D01*
Y245877D01*
X207570D01*
X198876Y254570D01*
Y276261D01*
X207211Y284595D01*
X212601D01*
Y291932D01*
X205264D01*
Y286542D01*
X196527Y277804D01*
X196228Y277358D01*
X196124Y276831D01*
Y254000D01*
X196228Y253473D01*
X196527Y253027D01*
X206027Y243527D01*
X206473Y243228D01*
X207000Y243124D01*
X212556D01*
Y241300D01*
X214124D01*
Y237700D01*
X212560D01*
Y231300D01*
X218448D01*
X218448Y237320D01*
Y237340D01*
Y237340D01*
X218448Y237367D01*
X218535Y237403D01*
X218948Y237574D01*
X220552Y235970D01*
Y231300D01*
X226441D01*
Y233149D01*
X228372D01*
X228840Y233242D01*
X229237Y233507D01*
X237586Y241855D01*
X243244D01*
X243303Y241867D01*
X244567D01*
Y240744D01*
X245579D01*
Y242799D01*
X245499D01*
Y243835D01*
Y245804D01*
Y247772D01*
Y249741D01*
Y251709D01*
Y253201D01*
X245579D01*
Y255256D01*
X244567D01*
Y254133D01*
X240989D01*
Y252223D01*
X239412D01*
X238944Y252300D01*
Y258700D01*
X233056D01*
Y252300D01*
X234776D01*
Y252000D01*
X234870Y251532D01*
X235135Y251135D01*
X236135Y250135D01*
X236532Y249870D01*
X237000Y249777D01*
X240989D01*
Y246271D01*
X233547D01*
X233079Y246178D01*
X232682Y245912D01*
X232237Y245468D01*
X226436D01*
Y247700D01*
X224440D01*
Y249436D01*
X224440Y249436D01*
X224336Y249963D01*
X224037Y250410D01*
X224037Y250410D01*
X223877Y250570D01*
Y268930D01*
X231570Y276624D01*
X298500D01*
X299027Y276728D01*
X299473Y277027D01*
X302288Y279842D01*
X302587Y280288D01*
X302691Y280815D01*
Y288670D01*
X303067Y288771D01*
X303204Y288850D01*
X324124Y267930D01*
Y240070D01*
X318430Y234377D01*
X308000D01*
X308000Y234377D01*
X307473Y234272D01*
X307027Y233973D01*
X299430Y226377D01*
X289762D01*
X289761Y226377D01*
X289235Y226272D01*
X288788Y225973D01*
X284102Y221287D01*
X283803Y220840D01*
X283802Y220833D01*
X283302Y220882D01*
Y225355D01*
X285720Y227773D01*
X286410D01*
X286543Y227800D01*
X290948D01*
Y234200D01*
X288376D01*
Y241060D01*
X292786Y245469D01*
X303263D01*
Y255531D01*
X298384D01*
Y262300D01*
X299952D01*
Y268700D01*
X294064D01*
Y262300D01*
X295631D01*
Y255531D01*
X291734D01*
X291654Y255651D01*
X291556Y256031D01*
X292061Y256535D01*
X292482Y257265D01*
X292700Y258079D01*
Y258921D01*
X292482Y259735D01*
X292061Y260465D01*
X291465Y261061D01*
X290877Y261400D01*
Y269623D01*
X303430D01*
X303624Y269430D01*
Y268700D01*
X302056D01*
Y262300D01*
X307944D01*
Y268700D01*
X306377D01*
Y270000D01*
X306272Y270527D01*
X305973Y270973D01*
X305973Y270973D01*
X304973Y271973D01*
X304527Y272272D01*
X304000Y272376D01*
X290262D01*
X290262Y272376D01*
X289735Y272272D01*
X289288Y271973D01*
X289288Y271973D01*
X288527Y271212D01*
X288228Y270765D01*
X288123Y270238D01*
Y261400D01*
X287535Y261061D01*
X286939Y260465D01*
X286518Y259735D01*
X286300Y258921D01*
Y258079D01*
X286518Y257265D01*
X286939Y256535D01*
X287535Y255939D01*
X288265Y255518D01*
X289079Y255300D01*
X289921D01*
X290339Y255412D01*
X290839Y255028D01*
Y247416D01*
X286027Y242603D01*
X285728Y242157D01*
X285624Y241630D01*
Y234200D01*
X285060D01*
Y230508D01*
X284623Y230422D01*
X284177Y230123D01*
X284177Y230123D01*
X280952Y226899D01*
X280654Y226452D01*
X280549Y225925D01*
Y217082D01*
X279719D01*
Y223709D01*
X279772Y223787D01*
X279876Y224314D01*
Y228100D01*
X280465Y228439D01*
X281061Y229035D01*
X281482Y229765D01*
X281700Y230579D01*
Y231421D01*
X281482Y232235D01*
X281061Y232965D01*
X280465Y233561D01*
X279735Y233982D01*
X278921Y234200D01*
X278079D01*
X277265Y233982D01*
X276535Y233561D01*
X275939Y232965D01*
X275518Y232235D01*
X275300Y231421D01*
Y230579D01*
X275518Y229765D01*
X275695Y229459D01*
X275294Y229152D01*
X270473Y233973D01*
X270027Y234272D01*
X269500Y234377D01*
X258500D01*
X257973Y234272D01*
X257527Y233973D01*
X251653Y228099D01*
X251354Y227653D01*
X251250Y227126D01*
Y225865D01*
X247839D01*
Y220135D01*
X253035D01*
X253226Y219673D01*
X252337Y218784D01*
X252039Y218337D01*
X251945Y217865D01*
X248339D01*
Y212135D01*
X252769D01*
X252835Y211635D01*
X252265Y211482D01*
X251535Y211061D01*
X250939Y210465D01*
X250518Y209735D01*
X250300Y208921D01*
Y208079D01*
X250518Y207265D01*
X250939Y206535D01*
X251535Y205939D01*
X252265Y205518D01*
X253079Y205300D01*
X253921D01*
X254735Y205518D01*
X255465Y205939D01*
X256061Y206535D01*
X256086Y206580D01*
X262918D01*
Y205318D01*
X261941D01*
X261941Y205318D01*
X261415Y205213D01*
X260968Y204915D01*
X260430Y204376D01*
X250863D01*
X250086Y205154D01*
X250200Y205579D01*
Y206421D01*
X249982Y207235D01*
X249561Y207965D01*
X248965Y208561D01*
X248235Y208982D01*
X247421Y209200D01*
X246579D01*
X245765Y208982D01*
X245035Y208561D01*
X244439Y207965D01*
X244018Y207235D01*
X243800Y206421D01*
Y205579D01*
X244018Y204765D01*
X244439Y204035D01*
X245035Y203439D01*
X245765Y203018D01*
X246579Y202800D01*
X247421D01*
X248235Y203018D01*
X248294Y203052D01*
X249320Y202027D01*
X249766Y201728D01*
X250293Y201624D01*
X261000D01*
X261527Y201728D01*
X261973Y202027D01*
X262118Y202171D01*
X262618Y201964D01*
Y201724D01*
X270524D01*
Y203307D01*
X270223D01*
Y205741D01*
Y209306D01*
X266271D01*
X266138Y209333D01*
X256590D01*
X256482Y209735D01*
X256061Y210465D01*
X255465Y211061D01*
X254735Y211482D01*
X254165Y211635D01*
X254231Y212135D01*
X254661D01*
Y216382D01*
X254687Y216515D01*
Y217241D01*
X258974Y221527D01*
X265948D01*
X266535Y220939D01*
X267265Y220518D01*
X268079Y220300D01*
X268921D01*
X269735Y220518D01*
X270465Y220939D01*
X271061Y221535D01*
X271400Y222124D01*
X273430D01*
X274250Y221304D01*
Y217082D01*
X270694D01*
Y214877D01*
X261900D01*
X261561Y215465D01*
X260965Y216061D01*
X260235Y216482D01*
X259421Y216700D01*
X258579D01*
X257765Y216482D01*
X257035Y216061D01*
X256439Y215465D01*
X256018Y214735D01*
X255800Y213921D01*
Y213079D01*
X256018Y212265D01*
X256439Y211535D01*
X257035Y210939D01*
X257765Y210518D01*
X258579Y210300D01*
X259421D01*
X260235Y210518D01*
X260965Y210939D01*
X261561Y211535D01*
X261900Y212123D01*
X270694D01*
Y209776D01*
X280906D01*
Y198075D01*
X280983Y197685D01*
X281204Y197354D01*
X294873Y183686D01*
X294681Y183224D01*
X270694D01*
Y179271D01*
X270667Y179138D01*
Y176876D01*
X243376D01*
Y190515D01*
X243271Y191041D01*
X242973Y191488D01*
X242212Y192249D01*
X241765Y192547D01*
X241298Y192640D01*
Y194763D01*
X236355D01*
Y189426D01*
X240624D01*
Y176876D01*
X226070D01*
X212877Y190070D01*
Y197000D01*
X212877Y197000D01*
X212772Y197527D01*
X212473Y197973D01*
X202377Y208070D01*
Y227738D01*
X202377Y227738D01*
X202272Y228265D01*
X201973Y228712D01*
X201973Y228712D01*
X201212Y229473D01*
X200765Y229772D01*
X200238Y229876D01*
X194876D01*
Y231355D01*
X195252Y231456D01*
X196287Y232053D01*
X197132Y232898D01*
X197729Y233933D01*
X198039Y235087D01*
Y236282D01*
X197729Y237437D01*
X197132Y238472D01*
X196287Y239317D01*
X195252Y239914D01*
X194097Y240224D01*
X192903D01*
X191748Y239914D01*
X190713Y239317D01*
X189868Y238472D01*
X189271Y237437D01*
X188961Y236282D01*
Y235087D01*
X189271Y233933D01*
X189868Y232898D01*
X190713Y232053D01*
X191748Y231456D01*
X192124Y231355D01*
Y229261D01*
X192228Y228735D01*
X192527Y228288D01*
X193288Y227527D01*
X193288Y227527D01*
X193735Y227228D01*
X194262Y227123D01*
X194262Y227123D01*
X199624D01*
Y207500D01*
X199728Y206973D01*
X200027Y206527D01*
X210123Y196430D01*
Y195035D01*
X210048Y194984D01*
X209473Y194973D01*
X209473Y194973D01*
X194876Y209570D01*
Y211670D01*
X195252Y211771D01*
X196287Y212368D01*
X197132Y213213D01*
X197729Y214248D01*
X198039Y215402D01*
Y216598D01*
X197729Y217752D01*
X197132Y218787D01*
X196287Y219632D01*
X195252Y220229D01*
X194097Y220538D01*
X192903D01*
X191748Y220229D01*
X190713Y219632D01*
X189868Y218787D01*
X189271Y217752D01*
X188961Y216598D01*
Y215402D01*
X189271Y214248D01*
X189868Y213213D01*
X190713Y212368D01*
X191748Y211771D01*
X192124Y211670D01*
Y209000D01*
X192228Y208473D01*
X192527Y208027D01*
X207123Y193430D01*
Y191400D01*
X206624Y191249D01*
X206473Y191473D01*
X200658Y197288D01*
X200212Y197587D01*
X199685Y197691D01*
X197830D01*
X197729Y198067D01*
X197132Y199102D01*
X196287Y199947D01*
X195252Y200544D01*
X194097Y200853D01*
X192903D01*
X191748Y200544D01*
X190713Y199947D01*
X189868Y199102D01*
X189271Y198067D01*
X188961Y196913D01*
Y195718D01*
X189271Y194563D01*
X189868Y193528D01*
X190713Y192683D01*
X191748Y192086D01*
X192903Y191776D01*
X194097D01*
X195252Y192086D01*
X196287Y192683D01*
X197132Y193528D01*
X197729Y194563D01*
X197830Y194939D01*
X199115D01*
X204124Y189930D01*
Y185500D01*
X204228Y184973D01*
X204527Y184527D01*
X220527Y168527D01*
X220752Y168376D01*
X220600Y167876D01*
X202020D01*
X199241Y170655D01*
X198795Y170954D01*
X198268Y171058D01*
X198039D01*
Y171098D01*
X197729Y172252D01*
X197132Y173287D01*
X196287Y174132D01*
X195252Y174729D01*
X194097Y175039D01*
X192903D01*
X191748Y174729D01*
X190713Y174132D01*
X189868Y173287D01*
X189271Y172252D01*
X188961Y171098D01*
Y169903D01*
X189271Y168748D01*
X189868Y167713D01*
X190713Y166868D01*
X191748Y166271D01*
X192903Y165961D01*
X194097D01*
X195252Y166271D01*
X196287Y166868D01*
X197132Y167713D01*
X197313Y168027D01*
X197912Y168092D01*
X200477Y165527D01*
X200477Y165527D01*
X200923Y165228D01*
X201450Y165124D01*
X273000D01*
X273527Y165228D01*
X273973Y165527D01*
X282898Y174452D01*
X283123Y174789D01*
X283624Y174676D01*
Y174070D01*
X273930Y164376D01*
X209262D01*
X209261Y164376D01*
X208735Y164272D01*
X208288Y163973D01*
X208288Y163973D01*
X207527Y163212D01*
X207228Y162765D01*
X207123Y162239D01*
Y150876D01*
X198039D01*
Y151412D01*
X197729Y152567D01*
X197132Y153602D01*
X196287Y154447D01*
X195252Y155044D01*
X194097Y155354D01*
X192903D01*
X191748Y155044D01*
X190713Y154447D01*
X189868Y153602D01*
X189271Y152567D01*
X188961Y151412D01*
Y150217D01*
X189271Y149063D01*
X189868Y148028D01*
X190713Y147183D01*
X191748Y146586D01*
X192903Y146276D01*
X194097D01*
X195252Y146586D01*
X196287Y147183D01*
X197132Y148028D01*
X197187Y148124D01*
X207738D01*
X208265Y148228D01*
X208712Y148527D01*
X209473Y149288D01*
X209473Y149288D01*
X209772Y149735D01*
X209876Y150261D01*
X209876Y150262D01*
Y161624D01*
X212861D01*
X213013Y161124D01*
X212788Y160973D01*
X212788Y160973D01*
X212027Y160212D01*
X211728Y159765D01*
X211624Y159239D01*
Y134070D01*
X210060Y132506D01*
X197830D01*
X197729Y132882D01*
X197132Y133917D01*
X196287Y134762D01*
X195252Y135359D01*
X194097Y135669D01*
X192903D01*
X191748Y135359D01*
X190713Y134762D01*
X189868Y133917D01*
X189271Y132882D01*
X188961Y131728D01*
Y130533D01*
X189271Y129378D01*
X189868Y128343D01*
X190713Y127498D01*
X191748Y126901D01*
X192903Y126591D01*
X194097D01*
X195252Y126901D01*
X196287Y127498D01*
X197132Y128343D01*
X197729Y129378D01*
X197830Y129753D01*
X210630D01*
X211157Y129858D01*
X211603Y130157D01*
X213973Y132527D01*
X213973Y132527D01*
X214272Y132973D01*
X214376Y133500D01*
X214376Y133500D01*
Y158624D01*
X276000D01*
X276527Y158728D01*
X276973Y159027D01*
X288973Y171027D01*
X289272Y171473D01*
X289376Y172000D01*
Y175918D01*
X289998D01*
Y173626D01*
X290102Y173099D01*
X290401Y172653D01*
X297124Y165930D01*
Y136369D01*
X296713Y136132D01*
X295868Y135287D01*
X295271Y134252D01*
X294961Y133098D01*
Y131903D01*
X295271Y130748D01*
X295868Y129713D01*
X296713Y128868D01*
X297748Y128271D01*
X298903Y127961D01*
X300097D01*
X301252Y128271D01*
X302287Y128868D01*
X303132Y129713D01*
X303729Y130748D01*
X304039Y131903D01*
Y133098D01*
X303729Y134252D01*
X303132Y135287D01*
X302287Y136132D01*
X301252Y136729D01*
X300097Y137039D01*
X299876D01*
Y165277D01*
X317810D01*
X317875Y164777D01*
X317666Y164720D01*
X316878Y164265D01*
X316235Y163622D01*
X315780Y162834D01*
X315544Y161955D01*
Y161045D01*
X315780Y160166D01*
X316235Y159378D01*
X316878Y158735D01*
X317666Y158280D01*
X318545Y158044D01*
X319455D01*
X320334Y158280D01*
X321122Y158735D01*
X321765Y159378D01*
X322220Y160166D01*
X322456Y161045D01*
Y161136D01*
X322656D01*
X323046Y161214D01*
X323377Y161435D01*
X325016Y163074D01*
X325464Y162815D01*
X325246Y162000D01*
X332754D01*
X332500Y162950D01*
X332006Y163806D01*
X331306Y164506D01*
X330484Y164980D01*
X330470Y165027D01*
X330711Y165480D01*
X332500D01*
X332890Y165558D01*
X333221Y165779D01*
X336221Y168779D01*
X336442Y169110D01*
X336520Y169500D01*
Y175500D01*
X336442Y175890D01*
X336221Y176221D01*
X334721Y177721D01*
X334390Y177942D01*
X334000Y178020D01*
X330884D01*
X330750Y178520D01*
X331122Y178735D01*
X331765Y179378D01*
X332220Y180166D01*
X332456Y181045D01*
Y181955D01*
X332220Y182834D01*
X331765Y183622D01*
X331122Y184265D01*
X330377Y184696D01*
Y187000D01*
X330272Y187527D01*
X329973Y187973D01*
X328347Y189599D01*
X327901Y189898D01*
X327794Y189919D01*
X327843Y190419D01*
X362675D01*
X362771Y190063D01*
X363368Y189028D01*
X364213Y188183D01*
X365248Y187586D01*
X366403Y187276D01*
X367598D01*
X368752Y187586D01*
X369787Y188183D01*
X370632Y189028D01*
X371229Y190063D01*
X371539Y191218D01*
Y192412D01*
X371229Y193567D01*
X370632Y194602D01*
X369787Y195447D01*
X368752Y196044D01*
X367598Y196354D01*
X366403D01*
X365248Y196044D01*
X364213Y195447D01*
X363368Y194602D01*
X362771Y193567D01*
X362665Y193172D01*
X304082D01*
Y195992D01*
X304382D01*
Y197575D01*
X296477D01*
Y195992D01*
X296777D01*
Y191942D01*
X296315Y191751D01*
X292795Y195270D01*
X293061Y195535D01*
X293482Y196265D01*
X293700Y197079D01*
Y197921D01*
X293482Y198735D01*
X293061Y199465D01*
X292465Y200061D01*
X291735Y200482D01*
X290921Y200700D01*
X290079D01*
X289265Y200482D01*
X288535Y200061D01*
X287939Y199465D01*
X287518Y198735D01*
X287300Y197921D01*
Y197079D01*
X287518Y196265D01*
X287939Y195535D01*
X288535Y194939D01*
X289265Y194518D01*
X289974Y194328D01*
X290235Y193938D01*
X296087Y188085D01*
X296533Y187787D01*
X296777Y187739D01*
Y185319D01*
X296315Y185127D01*
X282945Y198497D01*
Y209776D01*
X296306D01*
Y212053D01*
X306429D01*
X306956Y212158D01*
X307402Y212456D01*
X317570Y222623D01*
X340000D01*
X340527Y222728D01*
X340973Y223027D01*
X343973Y226027D01*
X344272Y226473D01*
X344376Y227000D01*
Y272115D01*
X364912Y292650D01*
X365248Y292456D01*
X366403Y292146D01*
X367598D01*
X368752Y292456D01*
X369787Y293053D01*
X370632Y293898D01*
X371229Y294933D01*
X371539Y296088D01*
Y297283D01*
X371229Y298437D01*
X370632Y299472D01*
X369787Y300317D01*
X368752Y300914D01*
X367598Y301224D01*
X366403D01*
X365248Y300914D01*
X364213Y300317D01*
X363368Y299472D01*
X362771Y298437D01*
X362461Y297283D01*
Y296088D01*
X362771Y294933D01*
X362965Y294597D01*
X342027Y273658D01*
X341728Y273212D01*
X341623Y272685D01*
Y227570D01*
X339430Y225377D01*
X336900D01*
X336748Y225876D01*
X336973Y226027D01*
X340473Y229527D01*
X340772Y229973D01*
X340877Y230500D01*
X340877Y230500D01*
Y274430D01*
X341658Y275212D01*
X341658Y275212D01*
X341957Y275658D01*
X342061Y276185D01*
Y288670D01*
X342437Y288771D01*
X343472Y289368D01*
X344317Y290213D01*
X344914Y291248D01*
X345224Y292403D01*
Y293598D01*
X344914Y294752D01*
X344317Y295787D01*
X343472Y296632D01*
X342437Y297229D01*
X341283Y297539D01*
X340088D01*
X338933Y297229D01*
X337898Y296632D01*
X337053Y295787D01*
X336456Y294752D01*
X336146Y293598D01*
Y292403D01*
X336456Y291248D01*
X337053Y290213D01*
X337898Y289368D01*
X338933Y288771D01*
X339309Y288670D01*
Y276755D01*
X338527Y275973D01*
X338228Y275527D01*
X338123Y275000D01*
Y231070D01*
X335430Y228377D01*
X320757D01*
X320750Y228873D01*
X321277Y228978D01*
X321723Y229277D01*
X329973Y237527D01*
X330272Y237973D01*
X330377Y238500D01*
Y270000D01*
X330377Y270000D01*
X330272Y270527D01*
X329973Y270973D01*
X322376Y278570D01*
Y288670D01*
X322752Y288771D01*
X323787Y289368D01*
X324632Y290213D01*
X325229Y291248D01*
X325539Y292403D01*
Y293598D01*
X325229Y294752D01*
X324632Y295787D01*
X323787Y296632D01*
X322752Y297229D01*
X322376Y297330D01*
Y299500D01*
X322272Y300027D01*
X321973Y300473D01*
X317473Y304973D01*
X317027Y305272D01*
X316500Y305377D01*
X294500D01*
X294500Y305377D01*
D02*
G37*
G36*
X184421Y294519D02*
X183438D01*
X182529Y294143D01*
X181834Y293447D01*
X181457Y292539D01*
Y291556D01*
X181834Y290647D01*
X182529Y289952D01*
X183438Y289576D01*
X184421D01*
X185329Y289952D01*
X186024Y290647D01*
X186401Y291556D01*
Y292539D01*
X186024Y293447D01*
X185329Y294143D01*
X184421Y294519D01*
D02*
G37*
G36*
X276597Y297539D02*
X275402D01*
X274248Y297229D01*
X273213Y296632D01*
X272368Y295787D01*
X271771Y294752D01*
X271461Y293598D01*
Y292403D01*
X271771Y291248D01*
X272368Y290213D01*
X273213Y289368D01*
X274248Y288771D01*
X275402Y288461D01*
X276597D01*
X277752Y288771D01*
X278787Y289368D01*
X279632Y290213D01*
X280229Y291248D01*
X280539Y292403D01*
Y293598D01*
X280229Y294752D01*
X279632Y295787D01*
X278787Y296632D01*
X277752Y297229D01*
X276597Y297539D01*
D02*
G37*
G36*
X256912D02*
X255717D01*
X254563Y297229D01*
X253528Y296632D01*
X252683Y295787D01*
X252086Y294752D01*
X251776Y293598D01*
Y292403D01*
X252086Y291248D01*
X252683Y290213D01*
X253528Y289368D01*
X254563Y288771D01*
X255717Y288461D01*
X256912D01*
X258067Y288771D01*
X259102Y289368D01*
X259947Y290213D01*
X260544Y291248D01*
X260854Y292403D01*
Y293598D01*
X260544Y294752D01*
X259947Y295787D01*
X259102Y296632D01*
X258067Y297229D01*
X256912Y297539D01*
D02*
G37*
G36*
X237228D02*
X236033D01*
X234878Y297229D01*
X233843Y296632D01*
X232998Y295787D01*
X232401Y294752D01*
X232091Y293598D01*
Y292403D01*
X232401Y291248D01*
X232998Y290213D01*
X233843Y289368D01*
X234878Y288771D01*
X236033Y288461D01*
X237228D01*
X238382Y288771D01*
X239417Y289368D01*
X240262Y290213D01*
X240859Y291248D01*
X241169Y292403D01*
Y293598D01*
X240859Y294752D01*
X240262Y295787D01*
X239417Y296632D01*
X238382Y297229D01*
X237228Y297539D01*
D02*
G37*
G36*
X184421Y282708D02*
X183438D01*
X182529Y282332D01*
X181834Y281636D01*
X181457Y280728D01*
Y279745D01*
X181834Y278836D01*
X182529Y278141D01*
X183438Y277765D01*
X184421D01*
X185329Y278141D01*
X186024Y278836D01*
X186401Y279745D01*
Y280728D01*
X186024Y281636D01*
X185329Y282332D01*
X184421Y282708D01*
D02*
G37*
G36*
X252500Y275240D02*
X249500D01*
Y272496D01*
X252500D01*
Y275240D01*
D02*
G37*
G36*
X243500D02*
X240500D01*
Y272496D01*
X243500D01*
Y275240D01*
D02*
G37*
G36*
X248500D02*
X245500D01*
Y272496D01*
X248500D01*
Y275240D01*
D02*
G37*
G36*
X239500D02*
X236500D01*
Y272496D01*
X239500D01*
Y275240D01*
D02*
G37*
G36*
X367598Y281539D02*
X366403D01*
X365248Y281229D01*
X364213Y280632D01*
X363368Y279787D01*
X362771Y278752D01*
X362670Y278377D01*
X356000D01*
X355473Y278272D01*
X355027Y277973D01*
X346027Y268973D01*
X345728Y268527D01*
X345623Y268000D01*
Y225070D01*
X342430Y221877D01*
X320500D01*
X319973Y221772D01*
X319527Y221473D01*
X306954Y208900D01*
X304082D01*
Y209306D01*
X296777D01*
Y205741D01*
Y202591D01*
Y200157D01*
X296477D01*
Y198575D01*
X304382D01*
Y199848D01*
X313724D01*
X314251Y199953D01*
X314698Y200251D01*
X324570Y210123D01*
X362670D01*
X362771Y209748D01*
X363368Y208713D01*
X364213Y207868D01*
X365248Y207271D01*
X366403Y206961D01*
X367598D01*
X368752Y207271D01*
X369787Y207868D01*
X370632Y208713D01*
X371229Y209748D01*
X371539Y210903D01*
Y212098D01*
X371229Y213252D01*
X370632Y214287D01*
X369787Y215132D01*
X368752Y215729D01*
X367598Y216039D01*
X366403D01*
X365248Y215729D01*
X364213Y215132D01*
X363368Y214287D01*
X362771Y213252D01*
X362670Y212877D01*
X324000D01*
X323473Y212772D01*
X323027Y212473D01*
X313154Y202601D01*
X310943D01*
X310893Y203101D01*
X310901Y203102D01*
X311347Y203401D01*
X323070Y215124D01*
X346000D01*
X346527Y215228D01*
X346973Y215527D01*
X352473Y221027D01*
X352473Y221027D01*
X352772Y221473D01*
X352876Y222000D01*
Y251930D01*
X356570Y255624D01*
X362755D01*
X362771Y255563D01*
X363368Y254528D01*
X364213Y253683D01*
X365248Y253086D01*
X366403Y252776D01*
X367598D01*
X368752Y253086D01*
X369787Y253683D01*
X370632Y254528D01*
X371229Y255563D01*
X371539Y256717D01*
Y257912D01*
X371229Y259067D01*
X370632Y260102D01*
X369787Y260947D01*
X368752Y261544D01*
X367598Y261854D01*
X366403D01*
X365248Y261544D01*
X364213Y260947D01*
X363368Y260102D01*
X362771Y259067D01*
X362586Y258377D01*
X356000D01*
X355473Y258272D01*
X355027Y257973D01*
X350527Y253473D01*
X350228Y253027D01*
X350124Y252500D01*
Y222570D01*
X345430Y217877D01*
X322500D01*
X321973Y217772D01*
X321527Y217473D01*
X321527Y217473D01*
X309804Y205750D01*
X308092D01*
X308043Y206251D01*
X308050Y206252D01*
X308497Y206550D01*
X321070Y219124D01*
X343000D01*
X343527Y219228D01*
X343973Y219527D01*
X347973Y223527D01*
X347973Y223527D01*
X348272Y223973D01*
X348376Y224500D01*
Y267430D01*
X356570Y275623D01*
X362670D01*
X362771Y275248D01*
X363368Y274213D01*
X364213Y273368D01*
X365248Y272771D01*
X366403Y272461D01*
X367598D01*
X368752Y272771D01*
X369787Y273368D01*
X370632Y274213D01*
X371229Y275248D01*
X371539Y276402D01*
Y277597D01*
X371229Y278752D01*
X370632Y279787D01*
X369787Y280632D01*
X368752Y281229D01*
X367598Y281539D01*
D02*
G37*
G36*
X252500Y271496D02*
X249500D01*
Y268752D01*
X252500D01*
Y271496D01*
D02*
G37*
G36*
X248500D02*
X245500D01*
Y268752D01*
X248500D01*
Y271496D01*
D02*
G37*
G36*
X243500D02*
X240500D01*
Y268752D01*
X243500D01*
Y271496D01*
D02*
G37*
G36*
X239500D02*
X236500D01*
Y268752D01*
X239500D01*
Y271496D01*
D02*
G37*
G36*
X263955Y270956D02*
X263045D01*
X262166Y270720D01*
X261378Y270265D01*
X260735Y269622D01*
X260280Y268834D01*
X260044Y267955D01*
Y267045D01*
X260280Y266166D01*
X260735Y265378D01*
X261191Y264921D01*
X257891Y261621D01*
X257626Y261224D01*
X257580Y260997D01*
X257071D01*
X257052Y261092D01*
X256786Y261489D01*
X253406Y264869D01*
X253009Y265134D01*
X252541Y265228D01*
X252200D01*
Y266948D01*
X245800D01*
Y265228D01*
X243200D01*
Y266948D01*
X236800D01*
Y265224D01*
X232485D01*
X232482Y265235D01*
X232061Y265965D01*
X231465Y266561D01*
X230735Y266982D01*
X229921Y267200D01*
X229079D01*
X228265Y266982D01*
X227535Y266561D01*
X226939Y265965D01*
X226518Y265235D01*
X226300Y264421D01*
Y263579D01*
X226518Y262765D01*
X226939Y262035D01*
X227535Y261439D01*
X228265Y261018D01*
X229079Y260800D01*
X229921D01*
X230735Y261018D01*
X231465Y261439D01*
X232061Y262035D01*
X232482Y262765D01*
X232485Y262776D01*
X236800D01*
Y261060D01*
X243200D01*
Y262780D01*
X245800D01*
Y261060D01*
X252200D01*
Y261961D01*
X252662Y262153D01*
X254698Y260117D01*
Y258011D01*
X247590D01*
Y258311D01*
X246579D01*
Y255756D01*
Y253201D01*
X247590D01*
Y253501D01*
X254772D01*
X254881Y253338D01*
Y245966D01*
X254959Y245575D01*
X255180Y245245D01*
X255638Y244786D01*
X255677Y244591D01*
X255942Y244194D01*
X256339Y243929D01*
X256501Y243897D01*
Y243835D01*
Y242499D01*
X247590D01*
Y242799D01*
X246579D01*
Y240244D01*
Y237689D01*
X247590D01*
Y237989D01*
X257133D01*
Y241867D01*
X261011D01*
Y245777D01*
X263253D01*
X267059Y241970D01*
Y237300D01*
X272948D01*
Y243700D01*
X268790D01*
X267190Y245300D01*
X267397Y245800D01*
X272948D01*
Y252200D01*
X267060D01*
Y250208D01*
X262591D01*
X262400Y250670D01*
X266598Y254867D01*
X267059Y254676D01*
Y253800D01*
X272948D01*
Y260200D01*
X267059D01*
Y258069D01*
X266845D01*
X266377Y257976D01*
X265980Y257710D01*
X261473Y253203D01*
X261011Y253395D01*
Y254133D01*
X259979D01*
Y260249D01*
X263774Y264044D01*
X263955D01*
X264834Y264280D01*
X265622Y264735D01*
X266265Y265378D01*
X266720Y266166D01*
X266956Y267045D01*
Y267955D01*
X266720Y268834D01*
X266265Y269622D01*
X265622Y270265D01*
X264834Y270720D01*
X263955Y270956D01*
D02*
G37*
G36*
X281240Y260500D02*
X278496D01*
Y257500D01*
X281240D01*
Y260500D01*
D02*
G37*
G36*
X277496D02*
X274752D01*
Y257500D01*
X277496D01*
Y260500D01*
D02*
G37*
G36*
X245579Y258311D02*
X244567D01*
Y256256D01*
X245579D01*
Y258311D01*
D02*
G37*
G36*
X231252Y259000D02*
X228508D01*
Y256000D01*
X231252D01*
Y259000D01*
D02*
G37*
G36*
X227508D02*
X224764D01*
Y256000D01*
X227508D01*
Y259000D01*
D02*
G37*
G36*
X281240Y256500D02*
X278496D01*
Y253500D01*
X281240D01*
Y256500D01*
D02*
G37*
G36*
X277496D02*
X274752D01*
Y253500D01*
X277496D01*
Y256500D01*
D02*
G37*
G36*
X231252Y255000D02*
X228508D01*
Y252000D01*
X231252D01*
Y255000D01*
D02*
G37*
G36*
X227508D02*
X224764D01*
Y252000D01*
X227508D01*
Y255000D01*
D02*
G37*
G36*
X322461Y255831D02*
X316449D01*
Y251000D01*
X322461D01*
Y255831D01*
D02*
G37*
G36*
X315449D02*
X309437D01*
Y251000D01*
X315449D01*
Y255831D01*
D02*
G37*
G36*
X281240Y252500D02*
X278496D01*
Y249500D01*
X281240D01*
Y252500D01*
D02*
G37*
G36*
X277496D02*
X274752D01*
Y249500D01*
X277496D01*
Y252500D01*
D02*
G37*
G36*
X281240Y248500D02*
X278496D01*
Y245500D01*
X281240D01*
Y248500D01*
D02*
G37*
G36*
X277496D02*
X274752D01*
Y245500D01*
X277496D01*
Y248500D01*
D02*
G37*
G36*
X322461Y250000D02*
X316449D01*
Y245169D01*
X322461D01*
Y250000D01*
D02*
G37*
G36*
X315449D02*
X309437D01*
Y245169D01*
X315449D01*
Y250000D01*
D02*
G37*
G36*
X281240Y244000D02*
X278496D01*
Y241000D01*
X281240D01*
Y244000D01*
D02*
G37*
G36*
X277496D02*
X274752D01*
Y241000D01*
X277496D01*
Y244000D01*
D02*
G37*
G36*
X245579Y239744D02*
X244567D01*
Y237689D01*
X245579D01*
Y239744D01*
D02*
G37*
G36*
X281240Y240000D02*
X278496D01*
Y237000D01*
X281240D01*
Y240000D01*
D02*
G37*
G36*
X277496D02*
X274752D01*
Y237000D01*
X277496D01*
Y240000D01*
D02*
G37*
G36*
X296921Y242200D02*
X296079D01*
X295265Y241982D01*
X294535Y241561D01*
X293939Y240965D01*
X293518Y240235D01*
X293300Y239421D01*
Y238579D01*
X293518Y237765D01*
X293939Y237035D01*
X294535Y236439D01*
X295124Y236100D01*
Y234200D01*
X293052D01*
Y227800D01*
X298940D01*
Y234200D01*
X297877D01*
Y236100D01*
X298465Y236439D01*
X299061Y237035D01*
X299482Y237765D01*
X299700Y238579D01*
Y239421D01*
X299482Y240235D01*
X299061Y240965D01*
X298465Y241561D01*
X297735Y241982D01*
X296921Y242200D01*
D02*
G37*
G36*
X367598Y235724D02*
X366403D01*
X365248Y235414D01*
X364213Y234817D01*
X363368Y233972D01*
X362771Y232937D01*
X362461Y231783D01*
Y230588D01*
X362771Y229433D01*
X363368Y228398D01*
X364213Y227553D01*
X365248Y226956D01*
X366403Y226646D01*
X367598D01*
X368752Y226956D01*
X369787Y227553D01*
X370632Y228398D01*
X371229Y229433D01*
X371539Y230588D01*
Y231783D01*
X371229Y232937D01*
X370632Y233972D01*
X369787Y234817D01*
X368752Y235414D01*
X367598Y235724D01*
D02*
G37*
G36*
X244909Y225865D02*
X238587D01*
Y223877D01*
X235940D01*
Y225700D01*
X230052D01*
Y219300D01*
X235940D01*
Y221124D01*
X238587D01*
Y220135D01*
X244909D01*
Y225865D01*
D02*
G37*
G36*
X228248Y226000D02*
X225504D01*
Y223000D01*
X228248D01*
Y226000D01*
D02*
G37*
G36*
X224504D02*
X221760D01*
Y223000D01*
X224504D01*
Y226000D01*
D02*
G37*
G36*
X228248Y222000D02*
X225504D01*
Y219000D01*
X228248D01*
Y222000D01*
D02*
G37*
G36*
X224504D02*
X221760D01*
Y219000D01*
X224504D01*
Y222000D01*
D02*
G37*
G36*
X245409Y217865D02*
X239087D01*
Y215376D01*
X235944D01*
Y217200D01*
X230056D01*
Y210800D01*
X235944D01*
Y212624D01*
X239087D01*
Y212135D01*
X245409D01*
Y217865D01*
D02*
G37*
G36*
X228252Y217500D02*
X225508D01*
Y214500D01*
X228252D01*
Y217500D01*
D02*
G37*
G36*
X224508D02*
X221764D01*
Y214500D01*
X224508D01*
Y217500D01*
D02*
G37*
G36*
X228252Y213500D02*
X225508D01*
Y210500D01*
X228252D01*
Y213500D01*
D02*
G37*
G36*
X224508D02*
X221764D01*
Y210500D01*
X224508D01*
Y213500D01*
D02*
G37*
G36*
X219645Y206574D02*
X214702D01*
Y201237D01*
X219645D01*
Y206574D01*
D02*
G37*
G36*
X241298D02*
X236355D01*
Y201237D01*
X238804D01*
X238888Y200814D01*
X239186Y200367D01*
X242527Y197027D01*
X242973Y196728D01*
X243500Y196624D01*
X262618D01*
Y195425D01*
X266571D01*
Y194425D01*
X262618D01*
Y192842D01*
X262918D01*
Y190002D01*
X260944D01*
X257749Y193198D01*
X257302Y193496D01*
X256776Y193601D01*
X254440D01*
Y193712D01*
X245560D01*
Y190737D01*
X254440D01*
Y190848D01*
X256206D01*
X259401Y187653D01*
X259401Y187653D01*
X259814Y187376D01*
X259819Y187340D01*
X259527Y186876D01*
X259000D01*
X258473Y186772D01*
X258027Y186473D01*
X258027Y186473D01*
X255705Y184152D01*
X254440D01*
Y184263D01*
X245560D01*
Y181288D01*
X254440D01*
Y181399D01*
X256276D01*
X256802Y181504D01*
X257249Y181802D01*
X259570Y184124D01*
X262918D01*
Y183694D01*
X270223D01*
Y186843D01*
Y190124D01*
X275600D01*
X275939Y189535D01*
X276535Y188939D01*
X277265Y188518D01*
X278079Y188300D01*
X278921D01*
X279735Y188518D01*
X280465Y188939D01*
X281061Y189535D01*
X281482Y190265D01*
X281700Y191079D01*
Y191921D01*
X281482Y192735D01*
X281061Y193465D01*
X280465Y194061D01*
X279735Y194482D01*
X278921Y194700D01*
X278079D01*
X277265Y194482D01*
X276535Y194061D01*
X275939Y193465D01*
X275600Y192876D01*
X273376D01*
Y196880D01*
X273376Y196881D01*
X273272Y197407D01*
X272973Y197854D01*
X272973Y197854D01*
X272212Y198615D01*
X271765Y198914D01*
X271238Y199019D01*
X270972D01*
X270524Y199142D01*
Y200724D01*
X262618D01*
Y199376D01*
X244070D01*
X241536Y201911D01*
Y203151D01*
X241431Y203678D01*
X241298Y203877D01*
Y206574D01*
D02*
G37*
G36*
X254740Y189287D02*
X250500D01*
Y188000D01*
X254740D01*
Y189287D01*
D02*
G37*
G36*
X249500D02*
X245260D01*
Y188000D01*
X249500D01*
Y189287D01*
D02*
G37*
G36*
X254740Y187000D02*
X250500D01*
Y185713D01*
X254740D01*
Y187000D01*
D02*
G37*
G36*
X249500D02*
X245260D01*
Y185713D01*
X249500D01*
Y187000D01*
D02*
G37*
G36*
X239744Y186500D02*
X237000D01*
Y183500D01*
X239744D01*
Y186500D01*
D02*
G37*
G36*
X236000D02*
X233256D01*
Y183500D01*
X236000D01*
Y186500D01*
D02*
G37*
G36*
X219645Y194763D02*
X214702D01*
Y189426D01*
X215970D01*
Y189154D01*
X216075Y188627D01*
X216373Y188180D01*
X221788Y182766D01*
X221788Y182766D01*
X222235Y182468D01*
X222761Y182363D01*
X225564D01*
Y179800D01*
X231452D01*
Y186200D01*
X225564D01*
Y185115D01*
X223331D01*
X219462Y188984D01*
X219645Y189426D01*
X219645D01*
Y194763D01*
D02*
G37*
G36*
X239744Y182500D02*
X237000D01*
Y179500D01*
X239744D01*
Y182500D01*
D02*
G37*
G36*
X236000D02*
X233256D01*
Y179500D01*
X236000D01*
Y182500D01*
D02*
G37*
G36*
X367598Y170724D02*
X366403D01*
X365248Y170414D01*
X364213Y169817D01*
X363368Y168972D01*
X362771Y167937D01*
X362461Y166782D01*
Y165587D01*
X362771Y164433D01*
X363368Y163398D01*
X364213Y162553D01*
X365248Y161956D01*
X366403Y161646D01*
X367598D01*
X368752Y161956D01*
X369787Y162553D01*
X370632Y163398D01*
X371229Y164433D01*
X371539Y165587D01*
Y166782D01*
X371229Y167937D01*
X370632Y168972D01*
X369787Y169817D01*
X368752Y170414D01*
X367598Y170724D01*
D02*
G37*
G36*
X332754Y161000D02*
X329500D01*
Y157746D01*
X330450Y158000D01*
X331306Y158494D01*
X332006Y159194D01*
X332500Y160050D01*
X332754Y161000D01*
D02*
G37*
G36*
X328500D02*
X325246D01*
X325500Y160050D01*
X325994Y159194D01*
X326694Y158494D01*
X327550Y158000D01*
X328500Y157746D01*
Y161000D01*
D02*
G37*
G36*
X278921Y153700D02*
X278079D01*
X277265Y153482D01*
X276535Y153061D01*
X275939Y152465D01*
X275600Y151876D01*
X256303D01*
X255777Y151772D01*
X255330Y151473D01*
X255330Y151473D01*
X245969Y142112D01*
X245469Y142320D01*
Y145355D01*
X246346D01*
Y153645D01*
X234513D01*
Y145355D01*
X242716D01*
Y138568D01*
X242278Y138322D01*
X242147Y138351D01*
X242003Y138447D01*
X241730Y138501D01*
X239805D01*
X239663Y138529D01*
X239522Y138501D01*
X233856D01*
X233583Y138447D01*
X233352Y138292D01*
X233197Y138060D01*
X233143Y137787D01*
Y132039D01*
X233197Y131766D01*
X233343Y131547D01*
X233197Y131328D01*
X233143Y131055D01*
Y128299D01*
X233197Y128026D01*
X233352Y127795D01*
X233583Y127640D01*
X233856Y127585D01*
X235209D01*
Y119835D01*
X235213Y119818D01*
X235210Y119801D01*
X235214Y119718D01*
X235218Y119635D01*
X235226Y119602D01*
X235225Y119568D01*
X235236Y119486D01*
X235243Y119467D01*
X235243Y119447D01*
X235259Y119368D01*
X235264Y119356D01*
X235264Y119343D01*
X235284Y119260D01*
X235293Y119241D01*
X235295Y119220D01*
X235318Y119141D01*
X235329Y119122D01*
X235332Y119100D01*
X235360Y119025D01*
X235365Y119016D01*
X235367Y119007D01*
X235398Y118928D01*
X235411Y118909D01*
X235416Y118887D01*
X235452Y118813D01*
X235465Y118794D01*
X235473Y118772D01*
X235512Y118701D01*
X235522Y118689D01*
X235527Y118675D01*
X235570Y118604D01*
X235577Y118597D01*
X235580Y118589D01*
X235623Y118522D01*
X235643Y118501D01*
X235655Y118476D01*
X235707Y118409D01*
X235725Y118393D01*
X235736Y118372D01*
X235792Y118309D01*
X235801Y118302D01*
X235807Y118292D01*
X235862Y118234D01*
X235882Y118219D01*
X235897Y118199D01*
X235956Y118144D01*
X235966Y118137D01*
X235973Y118128D01*
X236036Y118073D01*
X236057Y118061D01*
X236072Y118043D01*
X236139Y117992D01*
X236165Y117980D01*
X236185Y117960D01*
X236252Y117917D01*
X236261Y117913D01*
X236268Y117907D01*
X236338Y117863D01*
X236353Y117858D01*
X236364Y117849D01*
X236435Y117809D01*
X236457Y117802D01*
X236476Y117788D01*
X236551Y117753D01*
X236573Y117747D01*
X236591Y117735D01*
X236670Y117703D01*
X236680Y117702D01*
X236688Y117696D01*
X236763Y117669D01*
X236785Y117665D01*
X236805Y117655D01*
X236883Y117631D01*
X236904Y117629D01*
X236923Y117621D01*
X237006Y117601D01*
X237019Y117600D01*
X237031Y117595D01*
X237110Y117580D01*
X237130Y117580D01*
X237149Y117573D01*
X237232Y117561D01*
X237266Y117563D01*
X237299Y117555D01*
X237381Y117551D01*
X237464Y117547D01*
X237481Y117550D01*
X237498Y117546D01*
X238386D01*
X238482Y117533D01*
X238579Y117546D01*
X239467D01*
X239483Y117550D01*
X239500Y117547D01*
X239583Y117551D01*
X239666Y117555D01*
X239699Y117563D01*
X239733Y117561D01*
X239816Y117573D01*
X239834Y117580D01*
X239855Y117580D01*
X239933Y117595D01*
X239945Y117600D01*
X239959Y117601D01*
X240041Y117621D01*
X240060Y117629D01*
X240081Y117631D01*
X240160Y117655D01*
X240179Y117665D01*
X240201Y117669D01*
X240276Y117696D01*
X240285Y117702D01*
X240295Y117703D01*
X240373Y117735D01*
X240392Y117747D01*
X240414Y117753D01*
X240489Y117788D01*
X240507Y117802D01*
X240530Y117809D01*
X240601Y117849D01*
X240612Y117858D01*
X240626Y117863D01*
X240697Y117907D01*
X240704Y117913D01*
X240712Y117917D01*
X240779Y117960D01*
X240800Y117980D01*
X240825Y117992D01*
X240892Y118043D01*
X240908Y118061D01*
X240929Y118073D01*
X240992Y118128D01*
X240999Y118137D01*
X241009Y118143D01*
X241068Y118199D01*
X241082Y118219D01*
X241103Y118233D01*
X241158Y118292D01*
X241164Y118302D01*
X241173Y118309D01*
X241228Y118372D01*
X241591Y118462D01*
X241653Y118458D01*
X241824Y118424D01*
X241916Y118363D01*
Y116379D01*
X248926D01*
Y127621D01*
X242255D01*
X241916Y127621D01*
X241755Y128055D01*
Y131055D01*
X242003Y131380D01*
X242105Y131448D01*
X242537Y131283D01*
X242605Y131226D01*
Y129961D01*
X252541D01*
Y129661D01*
X253829D01*
Y134106D01*
Y138551D01*
X252541D01*
Y138251D01*
X250587D01*
Y139140D01*
X256070Y144624D01*
X264600D01*
X264939Y144035D01*
X265535Y143439D01*
X266265Y143018D01*
X267079Y142800D01*
X267921D01*
X268735Y143018D01*
X269465Y143439D01*
X270061Y144035D01*
X270482Y144765D01*
X270700Y145579D01*
Y146421D01*
X270482Y147235D01*
X270061Y147965D01*
X269465Y148561D01*
X269356Y148624D01*
X269490Y149124D01*
X275600D01*
X275939Y148535D01*
X276535Y147939D01*
X277265Y147518D01*
X278079Y147300D01*
X278921D01*
X279735Y147518D01*
X280465Y147939D01*
X281061Y148535D01*
X281482Y149265D01*
X281700Y150079D01*
Y150921D01*
X281482Y151735D01*
X281061Y152465D01*
X280465Y153061D01*
X279735Y153482D01*
X278921Y153700D01*
D02*
G37*
G36*
X367598Y151039D02*
X366403D01*
X365248Y150729D01*
X364213Y150132D01*
X363368Y149287D01*
X362771Y148252D01*
X362461Y147098D01*
Y145903D01*
X362771Y144748D01*
X363368Y143713D01*
X364213Y142868D01*
X365248Y142271D01*
X366403Y141961D01*
X367598D01*
X368752Y142271D01*
X369787Y142868D01*
X370632Y143713D01*
X371229Y144748D01*
X371539Y145903D01*
Y147098D01*
X371229Y148252D01*
X370632Y149287D01*
X369787Y150132D01*
X368752Y150729D01*
X367598Y151039D01*
D02*
G37*
G36*
X229416Y153645D02*
X217583D01*
Y145355D01*
X218623D01*
Y140900D01*
X218035Y140561D01*
X217439Y139965D01*
X217018Y139235D01*
X216800Y138421D01*
Y137579D01*
X217018Y136765D01*
X217439Y136035D01*
X218035Y135439D01*
X218765Y135018D01*
X219579Y134800D01*
X220421D01*
X221235Y135018D01*
X221965Y135439D01*
X222561Y136035D01*
X222982Y136765D01*
X223200Y137579D01*
Y138421D01*
X222982Y139235D01*
X222561Y139965D01*
X221965Y140561D01*
X221376Y140900D01*
Y145355D01*
X229416D01*
Y153645D01*
D02*
G37*
G36*
X339468Y137039D02*
X338273D01*
X337118Y136729D01*
X336083Y136132D01*
X335238Y135287D01*
X334641Y134252D01*
X334331Y133098D01*
Y131903D01*
X334641Y130748D01*
X335238Y129713D01*
X336083Y128868D01*
X337118Y128271D01*
X338273Y127961D01*
X339468D01*
X340622Y128271D01*
X341657Y128868D01*
X342502Y129713D01*
X343099Y130748D01*
X343409Y131903D01*
Y133098D01*
X343099Y134252D01*
X342502Y135287D01*
X341657Y136132D01*
X340622Y136729D01*
X339468Y137039D01*
D02*
G37*
G36*
X319782D02*
X318587D01*
X317433Y136729D01*
X316398Y136132D01*
X315553Y135287D01*
X314956Y134252D01*
X314646Y133098D01*
Y131903D01*
X314956Y130748D01*
X315553Y129713D01*
X316398Y128868D01*
X317433Y128271D01*
X318587Y127961D01*
X319782D01*
X320937Y128271D01*
X321972Y128868D01*
X322817Y129713D01*
X323414Y130748D01*
X323724Y131903D01*
Y133098D01*
X323414Y134252D01*
X322817Y135287D01*
X321972Y136132D01*
X320937Y136729D01*
X319782Y137039D01*
D02*
G37*
G36*
X367637Y131654D02*
X367500D01*
Y127315D01*
X371839D01*
Y127452D01*
X371509Y128683D01*
X370872Y129786D01*
X369971Y130687D01*
X368868Y131324D01*
X367637Y131654D01*
D02*
G37*
G36*
X366500D02*
X366363D01*
X365132Y131324D01*
X364029Y130687D01*
X363128Y129786D01*
X362491Y128683D01*
X362161Y127452D01*
Y127315D01*
X366500D01*
Y131654D01*
D02*
G37*
G36*
X371839Y126315D02*
X367500D01*
Y121976D01*
X367637D01*
X368868Y122306D01*
X369971Y122943D01*
X370872Y123844D01*
X371509Y124947D01*
X371839Y126178D01*
Y126315D01*
D02*
G37*
G36*
X366500D02*
X362161D01*
Y126178D01*
X362491Y124947D01*
X363128Y123844D01*
X364029Y122943D01*
X365132Y122306D01*
X366363Y121976D01*
X366500D01*
Y126315D01*
D02*
G37*
G36*
X256116Y138551D02*
X256116Y138551D01*
X254829D01*
Y134106D01*
Y129661D01*
X256116D01*
Y130525D01*
X256559Y130778D01*
X256666Y130698D01*
Y128054D01*
X256505Y127621D01*
X256166Y127621D01*
X249495D01*
Y116379D01*
X256505D01*
Y118364D01*
X256597Y118425D01*
X256768Y118459D01*
X256831Y118462D01*
X257193Y118372D01*
X257248Y118309D01*
X257258Y118302D01*
X257264Y118292D01*
X257319Y118234D01*
X257339Y118219D01*
X257354Y118199D01*
X257413Y118143D01*
X257422Y118137D01*
X257430Y118128D01*
X257493Y118073D01*
X257513Y118061D01*
X257529Y118043D01*
X257596Y117992D01*
X257622Y117980D01*
X257642Y117960D01*
X257709Y117917D01*
X257717Y117913D01*
X257724Y117907D01*
X257795Y117863D01*
X257809Y117858D01*
X257821Y117849D01*
X257892Y117809D01*
X257914Y117802D01*
X257933Y117788D01*
X258008Y117753D01*
X258029Y117747D01*
X258048Y117735D01*
X258127Y117703D01*
X258137Y117702D01*
X258145Y117696D01*
X258220Y117669D01*
X258242Y117665D01*
X258261Y117655D01*
X258340Y117631D01*
X258361Y117629D01*
X258380Y117621D01*
X258463Y117601D01*
X258476Y117600D01*
X258488Y117595D01*
X258567Y117580D01*
X258587Y117580D01*
X258606Y117573D01*
X258688Y117561D01*
X258722Y117563D01*
X258755Y117555D01*
X258838Y117551D01*
X258838D01*
X258921Y117547D01*
X258938Y117550D01*
X258955Y117546D01*
X259842D01*
X259939Y117533D01*
X260035Y117546D01*
X260923D01*
X260940Y117550D01*
X260957Y117547D01*
X261122Y117555D01*
X261156Y117563D01*
X261190Y117561D01*
X261272Y117573D01*
X261291Y117580D01*
X261311Y117580D01*
X261390Y117595D01*
X261402Y117600D01*
X261415Y117601D01*
X261498Y117621D01*
X261517Y117629D01*
X261538Y117631D01*
X261616Y117655D01*
X261636Y117665D01*
X261658Y117669D01*
X261733Y117696D01*
X261741Y117702D01*
X261751Y117703D01*
X261830Y117735D01*
X261849Y117747D01*
X261871Y117753D01*
X261945Y117788D01*
X261964Y117802D01*
X261986Y117809D01*
X262057Y117849D01*
X262069Y117858D01*
X262083Y117863D01*
X262154Y117907D01*
X262160Y117913D01*
X262169Y117917D01*
X262236Y117960D01*
X262257Y117980D01*
X262282Y117992D01*
X262349Y118043D01*
X262365Y118061D01*
X262385Y118073D01*
X262448Y118128D01*
X262456Y118137D01*
X262465Y118144D01*
X262524Y118199D01*
X262539Y118219D01*
X262559Y118233D01*
X262614Y118292D01*
X262620Y118302D01*
X262630Y118309D01*
X262685Y118372D01*
X262697Y118393D01*
X262715Y118409D01*
X262766Y118476D01*
X262778Y118501D01*
X262798Y118522D01*
X262841Y118589D01*
X262845Y118597D01*
X262851Y118604D01*
X262895Y118675D01*
X262900Y118689D01*
X262909Y118701D01*
X262949Y118772D01*
X262956Y118794D01*
X262970Y118813D01*
X263005Y118887D01*
X263011Y118909D01*
X263023Y118928D01*
X263054Y119007D01*
X263056Y119016D01*
X263061Y119025D01*
X263089Y119100D01*
X263092Y119122D01*
X263103Y119141D01*
X263126Y119220D01*
X263128Y119241D01*
X263137Y119260D01*
X263157Y119343D01*
X263157Y119356D01*
X263162Y119368D01*
X263178Y119447D01*
X263178Y119467D01*
X263185Y119486D01*
X263197Y119568D01*
X263195Y119602D01*
X263203Y119635D01*
X263207Y119718D01*
Y119718D01*
X263211Y119801D01*
X263208Y119818D01*
X263212Y119835D01*
Y127585D01*
X264565D01*
X264838Y127640D01*
X265070Y127795D01*
X265224Y128026D01*
X265279Y128299D01*
Y131055D01*
X265224Y131328D01*
X265078Y131547D01*
X265224Y131766D01*
X265279Y132039D01*
Y137787D01*
X265224Y138060D01*
X265070Y138292D01*
X264838Y138447D01*
X264565Y138501D01*
X258900D01*
X258758Y138529D01*
X258616Y138501D01*
X256691D01*
X256616Y138486D01*
X256116Y138551D01*
Y138551D01*
D02*
G37*
%LPD*%
G36*
X319623Y298930D02*
Y297330D01*
X319248Y297229D01*
X318213Y296632D01*
X317368Y295787D01*
X316771Y294752D01*
X316461Y293598D01*
Y292403D01*
X316771Y291248D01*
X317368Y290213D01*
X318213Y289368D01*
X319248Y288771D01*
X319623Y288670D01*
Y278000D01*
X319728Y277473D01*
X320027Y277027D01*
X327624Y269430D01*
Y239070D01*
X327064Y238510D01*
X326675Y238829D01*
X326772Y238973D01*
X326876Y239500D01*
X326876Y239500D01*
Y268500D01*
X326876Y268500D01*
X326772Y269027D01*
X326473Y269473D01*
X326473Y269473D01*
X305235Y290712D01*
X305544Y291248D01*
X305854Y292403D01*
Y293598D01*
X305544Y294752D01*
X304947Y295787D01*
X304102Y296632D01*
X303067Y297229D01*
X301912Y297539D01*
X300717D01*
X299563Y297229D01*
X298528Y296632D01*
X297683Y295787D01*
X297086Y294752D01*
X296776Y293598D01*
Y292403D01*
X297086Y291248D01*
X297683Y290213D01*
X298528Y289368D01*
X299563Y288771D01*
X299939Y288670D01*
Y281385D01*
X297930Y279377D01*
X231000D01*
X231000Y279377D01*
X230473Y279272D01*
X230027Y278973D01*
X230027Y278973D01*
X221527Y270473D01*
X221527Y270473D01*
X221009Y269955D01*
X212362D01*
X212351Y269995D01*
X211869Y270831D01*
X211186Y271514D01*
X210349Y271997D01*
X209416Y272247D01*
X208450D01*
X207517Y271997D01*
X206680Y271514D01*
X205997Y270831D01*
X205515Y269995D01*
X205264Y269062D01*
Y268096D01*
X205515Y267163D01*
X205997Y266326D01*
X206680Y265643D01*
X207517Y265160D01*
X208450Y264910D01*
X209416D01*
X210349Y265160D01*
X211186Y265643D01*
X211869Y266326D01*
X212351Y267163D01*
X212362Y267202D01*
X221124D01*
Y250000D01*
X221228Y249473D01*
X221527Y249027D01*
X221687Y248866D01*
Y247700D01*
X220684D01*
X220630Y247968D01*
X220365Y248365D01*
X216365Y252365D01*
X215968Y252630D01*
X215500Y252724D01*
X207007D01*
X203223Y256507D01*
Y270981D01*
X207344Y275102D01*
X207517Y275003D01*
X208450Y274753D01*
X209416D01*
X210349Y275003D01*
X211186Y275486D01*
X211869Y276169D01*
X212351Y277005D01*
X212601Y277938D01*
Y278904D01*
X212387Y279704D01*
X212656Y280049D01*
X212763Y280123D01*
X280000D01*
X280527Y280228D01*
X280973Y280527D01*
X288973Y288527D01*
X289272Y288973D01*
X289376Y289500D01*
X289376Y289500D01*
Y296930D01*
X295070Y302624D01*
X315930D01*
X319623Y298930D01*
D02*
G37*
G36*
X235631Y243362D02*
X227865Y235596D01*
X226441D01*
Y237700D01*
X222283D01*
X220724Y239259D01*
Y241300D01*
X226436D01*
Y243021D01*
X232744D01*
X233212Y243114D01*
X233609Y243379D01*
X234054Y243824D01*
X235440D01*
X235631Y243362D01*
D02*
G37*
G36*
X276922Y223632D02*
X276873Y223206D01*
X276410Y223037D01*
X274973Y224473D01*
X274527Y224772D01*
X274000Y224876D01*
X271400D01*
X271061Y225465D01*
X270465Y226061D01*
X269735Y226482D01*
X268921Y226700D01*
X268079D01*
X267265Y226482D01*
X266535Y226061D01*
X265939Y225465D01*
X265518Y224735D01*
X265396Y224280D01*
X258403D01*
X258403Y224280D01*
X257877Y224175D01*
X257430Y223877D01*
X257430Y223877D01*
X254623Y221069D01*
X254161Y221260D01*
Y225865D01*
X254002D01*
Y226556D01*
X259070Y231624D01*
X268930D01*
X276922Y223632D01*
D02*
G37*
G36*
X316252Y225124D02*
X316027Y224973D01*
X305859Y214806D01*
X296306D01*
Y217082D01*
X292877D01*
Y217623D01*
X305000D01*
X305527Y217728D01*
X305973Y218027D01*
X313570Y225623D01*
X316100D01*
X316252Y225124D01*
D02*
G37*
G36*
X327624Y186430D02*
Y184696D01*
X326878Y184265D01*
X326235Y183622D01*
X325780Y182834D01*
X325544Y181955D01*
Y181045D01*
X325780Y180166D01*
X326235Y179378D01*
X326878Y178735D01*
X327250Y178520D01*
X327116Y178020D01*
X320884D01*
X320750Y178520D01*
X321122Y178735D01*
X321765Y179378D01*
X322220Y180166D01*
X322456Y181045D01*
Y181955D01*
X322220Y182834D01*
X321765Y183622D01*
X321122Y184265D01*
X320334Y184720D01*
X319455Y184956D01*
X318545D01*
X317666Y184720D01*
X316878Y184265D01*
X316235Y183622D01*
X315804Y182876D01*
X306846D01*
X304082Y185640D01*
Y187250D01*
X326804D01*
X327624Y186430D01*
D02*
G37*
G36*
X305302Y180527D02*
X305749Y180228D01*
X306276Y180124D01*
X315804D01*
X316235Y179378D01*
X316878Y178735D01*
X317250Y178520D01*
X317116Y178020D01*
X306422D01*
X301248Y183194D01*
X301257Y183310D01*
X301413Y183694D01*
X302135D01*
X305302Y180527D01*
D02*
G37*
G36*
X210527Y188527D02*
X224527Y174527D01*
X224527Y174527D01*
X224973Y174228D01*
X225500Y174124D01*
X271282D01*
X271516Y174170D01*
X271763Y173709D01*
X271430Y173376D01*
X223570D01*
X209876Y187070D01*
Y188600D01*
X210377Y188752D01*
X210527Y188527D01*
D02*
G37*
G36*
X305610Y176058D02*
X306000Y175980D01*
X333578D01*
X334480Y175078D01*
Y169922D01*
X332078Y167520D01*
X327000D01*
X326610Y167442D01*
X326279Y167221D01*
X322459Y163401D01*
X321855Y163468D01*
X321765Y163622D01*
X321122Y164265D01*
X320334Y164720D01*
X320125Y164777D01*
X320190Y165277D01*
X322000D01*
X322468Y165370D01*
X322865Y165635D01*
X326421Y169191D01*
X326878Y168735D01*
X327666Y168280D01*
X328545Y168044D01*
X329455D01*
X330334Y168280D01*
X331122Y168735D01*
X331765Y169378D01*
X332220Y170166D01*
X332456Y171045D01*
Y171955D01*
X332220Y172834D01*
X331765Y173622D01*
X331122Y174265D01*
X330334Y174720D01*
X329455Y174956D01*
X328545D01*
X327666Y174720D01*
X326878Y174265D01*
X326235Y173622D01*
X325780Y172834D01*
X325544Y171955D01*
Y171883D01*
X325221Y171667D01*
X324922Y171221D01*
X324905Y171136D01*
X321493Y167724D01*
X320190D01*
X320125Y168224D01*
X320334Y168280D01*
X321122Y168735D01*
X321765Y169378D01*
X322220Y170166D01*
X322456Y171045D01*
Y171955D01*
X322220Y172834D01*
X321765Y173622D01*
X321122Y174265D01*
X320334Y174720D01*
X319455Y174956D01*
X318545D01*
X317666Y174720D01*
X316878Y174265D01*
X316235Y173622D01*
X315804Y172876D01*
X308070D01*
X305248Y175698D01*
X305567Y176086D01*
X305610Y176058D01*
D02*
G37*
G36*
X306527Y170527D02*
X306973Y170228D01*
X307500Y170124D01*
X307500Y170124D01*
X315804D01*
X316235Y169378D01*
X316878Y168735D01*
X317666Y168280D01*
X317875Y168224D01*
X317810Y167724D01*
X299223D01*
X292751Y174196D01*
Y175918D01*
X296306D01*
Y178124D01*
X298930D01*
X306527Y170527D01*
D02*
G37*
%LPC*%
G36*
X217500Y265490D02*
Y262500D01*
X220490D01*
X220262Y263351D01*
X219801Y264149D01*
X219149Y264801D01*
X218351Y265262D01*
X217500Y265490D01*
D02*
G37*
G36*
X216500D02*
X215649Y265262D01*
X214851Y264801D01*
X214199Y264149D01*
X213738Y263351D01*
X213510Y262500D01*
X216500D01*
Y265490D01*
D02*
G37*
G36*
X209455Y262705D02*
X209433D01*
Y259236D01*
X212901D01*
Y259259D01*
X212631Y260268D01*
X212109Y261173D01*
X211370Y261912D01*
X210465Y262434D01*
X209455Y262705D01*
D02*
G37*
G36*
X208433D02*
X208411D01*
X207401Y262434D01*
X206496Y261912D01*
X205757Y261173D01*
X205235Y260268D01*
X204964Y259259D01*
Y259236D01*
X208433D01*
Y262705D01*
D02*
G37*
G36*
X220490Y261500D02*
X217500D01*
Y258510D01*
X218351Y258738D01*
X219149Y259199D01*
X219801Y259851D01*
X220262Y260649D01*
X220490Y261500D01*
D02*
G37*
G36*
X216500D02*
X213510D01*
X213738Y260649D01*
X214199Y259851D01*
X214851Y259199D01*
X215649Y258738D01*
X216500Y258510D01*
Y261500D01*
D02*
G37*
G36*
X212901Y258236D02*
X209433D01*
Y254768D01*
X209455D01*
X210465Y255038D01*
X211370Y255561D01*
X212109Y256299D01*
X212631Y257204D01*
X212901Y258214D01*
Y258236D01*
D02*
G37*
G36*
X208433D02*
X204964D01*
Y258214D01*
X205235Y257204D01*
X205757Y256299D01*
X206496Y255561D01*
X207401Y255038D01*
X208411Y254768D01*
X208433D01*
Y258236D01*
D02*
G37*
%LPD*%
G36*
X241730Y132039D02*
X233856D01*
Y137787D01*
X241730D01*
Y132039D01*
D02*
G37*
G36*
X241041Y119835D02*
X241037Y119752D01*
X241034Y119669D01*
X241022Y119587D01*
X241006Y119508D01*
X240986Y119425D01*
X240963Y119346D01*
X240935Y119272D01*
X240904Y119193D01*
X240868Y119118D01*
X240829Y119047D01*
X240785Y118976D01*
X240742Y118909D01*
X240691Y118842D01*
X240636Y118780D01*
X240581Y118720D01*
X240522Y118665D01*
X240459Y118610D01*
X240392Y118559D01*
X240325Y118516D01*
X240254Y118472D01*
X240183Y118433D01*
X240108Y118398D01*
X240030Y118366D01*
X239955Y118339D01*
X239876Y118315D01*
X239793Y118295D01*
X239715Y118280D01*
X239632Y118268D01*
X239549Y118264D01*
X239467Y118260D01*
X237498D01*
X237415Y118264D01*
X237333Y118268D01*
X237250Y118280D01*
X237171Y118295D01*
X237089Y118315D01*
X237010Y118339D01*
X236935Y118366D01*
X236856Y118398D01*
X236782Y118433D01*
X236711Y118472D01*
X236640Y118516D01*
X236573Y118559D01*
X236506Y118610D01*
X236443Y118665D01*
X236384Y118720D01*
X236329Y118780D01*
X236274Y118842D01*
X236223Y118909D01*
X236179Y118976D01*
X236136Y119047D01*
X236097Y119118D01*
X236061Y119193D01*
X236030Y119272D01*
X236002Y119346D01*
X235978Y119425D01*
X235959Y119508D01*
X235943Y119587D01*
X235931Y119669D01*
X235927Y119752D01*
X235923Y119835D01*
Y128299D01*
X233856D01*
Y131055D01*
X241041D01*
Y119835D01*
D02*
G37*
G36*
X264565Y132039D02*
X256691D01*
Y137787D01*
X264565D01*
Y132039D01*
D02*
G37*
G36*
Y128299D02*
X262498D01*
Y119835D01*
X262494Y119752D01*
X262490Y119669D01*
X262478Y119587D01*
X262463Y119508D01*
X262443Y119425D01*
X262419Y119346D01*
X262392Y119272D01*
X262360Y119193D01*
X262325Y119118D01*
X262285Y119047D01*
X262242Y118976D01*
X262199Y118909D01*
X262148Y118842D01*
X262092Y118780D01*
X262037Y118720D01*
X261978Y118665D01*
X261915Y118610D01*
X261848Y118559D01*
X261782Y118516D01*
X261711Y118472D01*
X261640Y118433D01*
X261565Y118398D01*
X261486Y118366D01*
X261411Y118339D01*
X261333Y118315D01*
X261250Y118295D01*
X261171Y118280D01*
X261089Y118268D01*
X261006Y118264D01*
X260923Y118260D01*
X258955D01*
X258872Y118264D01*
X258789Y118268D01*
X258707Y118280D01*
X258628Y118295D01*
X258545Y118315D01*
X258467Y118339D01*
X258392Y118366D01*
X258313Y118398D01*
X258238Y118433D01*
X258167Y118472D01*
X258097Y118516D01*
X258030Y118559D01*
X257963Y118610D01*
X257900Y118665D01*
X257841Y118720D01*
X257785Y118780D01*
X257730Y118842D01*
X257679Y118909D01*
X257636Y118976D01*
X257593Y119047D01*
X257553Y119118D01*
X257518Y119193D01*
X257486Y119272D01*
X257459Y119346D01*
X257435Y119425D01*
X257415Y119508D01*
X257400Y119587D01*
X257388Y119669D01*
X257384Y119752D01*
X257380Y119835D01*
Y131055D01*
X264565D01*
Y128299D01*
D02*
G37*
D12*
X332500Y166500D02*
X335500Y169500D01*
X322656Y162156D02*
X327000Y166500D01*
X332500D01*
X335500Y169500D02*
Y175500D01*
X297500Y182500D02*
X300500D01*
X306000Y177000D01*
X334000D01*
X335500Y175500D01*
X281925Y198075D02*
Y213429D01*
Y198075D02*
X297500Y182500D01*
X319656Y162156D02*
X322656D01*
X319000Y161500D02*
X319656Y162156D01*
X255901Y245966D02*
Y253972D01*
Y245966D02*
X256807Y245059D01*
D15*
X202000Y256000D02*
Y271488D01*
X206500Y251500D02*
X215500D01*
X202000Y256000D02*
X206500Y251500D01*
X223496Y234372D02*
X228372D01*
X215500Y251500D02*
X219500Y247500D01*
Y238752D02*
Y247500D01*
X223496Y234500D02*
Y234756D01*
X219500Y238752D02*
X223496Y234756D01*
X223492Y244244D02*
X232744D01*
X233547Y245047D01*
X202000Y271488D02*
X208933Y278421D01*
X228372Y234372D02*
X237079Y243079D01*
X243244D01*
X239996Y264000D02*
X240000Y264004D01*
X229500Y264000D02*
X239996D01*
X298500Y166500D02*
X322000D01*
X326194Y170694D01*
X256807Y245059D02*
X258744D01*
X258756Y245047D01*
X255909Y255744D02*
X255921Y255756D01*
X255909Y253980D02*
Y255744D01*
X255901Y253972D02*
X255909Y253980D01*
X255921Y255756D02*
Y260624D01*
X252541Y264004D02*
X255921Y260624D01*
X266845Y256845D02*
X269849D01*
X260965Y250965D02*
X266845Y256845D01*
X258768Y250965D02*
X260965D01*
X269849Y256845D02*
X270004Y257000D01*
X263759Y247000D02*
X270004Y240756D01*
X258772Y247000D02*
X263759D01*
X263500Y265500D02*
Y267500D01*
X236000Y252000D02*
Y255500D01*
X237000Y251000D02*
X243197D01*
X236000Y252000D02*
X237000Y251000D01*
X236000Y255500D02*
X237685Y253815D01*
X233547Y245047D02*
X243244D01*
X240000Y264004D02*
X249000D01*
X252541D01*
X258756Y260756D02*
X263500Y265500D01*
X258756Y248984D02*
X269988D01*
X258756Y250953D02*
X258768Y250965D01*
X258756Y252921D02*
Y260756D01*
D37*
X236500Y183000D02*
D03*
X228508D02*
D03*
X215504Y234500D02*
D03*
X223496D02*
D03*
X228008Y255500D02*
D03*
X236000D02*
D03*
X305000Y265500D02*
D03*
X297008D02*
D03*
X288004Y231000D02*
D03*
X295996D02*
D03*
X225008Y214000D02*
D03*
X233000D02*
D03*
X277996Y249000D02*
D03*
X270004D02*
D03*
X215500Y244500D02*
D03*
X223492D02*
D03*
X277996Y240500D02*
D03*
X270004D02*
D03*
X277996Y257000D02*
D03*
X270004D02*
D03*
X225004Y222500D02*
D03*
X232996D02*
D03*
D38*
X238827Y192095D02*
D03*
X217173D02*
D03*
X238827Y203906D02*
D03*
X217173D02*
D03*
D39*
X250000Y182776D02*
D03*
Y192224D02*
D03*
Y187500D02*
D03*
D40*
X240000Y271996D02*
D03*
Y264004D02*
D03*
X249000Y271996D02*
D03*
Y264004D02*
D03*
D41*
X315949Y250500D02*
D03*
X297051D02*
D03*
D42*
X272476Y213429D02*
D03*
X275626D02*
D03*
X278776D02*
D03*
X281925D02*
D03*
X285075D02*
D03*
X288224D02*
D03*
X291374D02*
D03*
X294524D02*
D03*
Y179571D02*
D03*
X291374D02*
D03*
X288224D02*
D03*
X285075D02*
D03*
X281925D02*
D03*
X278776D02*
D03*
X275626D02*
D03*
X272476D02*
D03*
D43*
X300429Y207524D02*
D03*
Y204374D02*
D03*
Y201224D02*
D03*
Y198075D02*
D03*
Y194925D02*
D03*
Y191776D02*
D03*
Y188626D02*
D03*
Y185476D02*
D03*
X266571D02*
D03*
Y188626D02*
D03*
Y191776D02*
D03*
Y194925D02*
D03*
Y198075D02*
D03*
Y201224D02*
D03*
Y204374D02*
D03*
Y207524D02*
D03*
D44*
X241748Y223000D02*
D03*
X251000D02*
D03*
X242248Y215000D02*
D03*
X251500D02*
D03*
D45*
X253000Y122000D02*
D03*
X245421D02*
D03*
D46*
X254329Y134106D02*
D03*
X251770D02*
D03*
X249211D02*
D03*
X246652D02*
D03*
X244093D02*
D03*
D47*
X243244Y243079D02*
D03*
Y245047D02*
D03*
Y247016D02*
D03*
Y248984D02*
D03*
Y250953D02*
D03*
Y252921D02*
D03*
X258756D02*
D03*
Y250953D02*
D03*
Y248984D02*
D03*
Y247016D02*
D03*
Y245047D02*
D03*
Y243079D02*
D03*
D48*
X246079Y255756D02*
D03*
X248047D02*
D03*
X250016D02*
D03*
X251984D02*
D03*
X253953D02*
D03*
X255921D02*
D03*
Y240244D02*
D03*
X253953D02*
D03*
X251984D02*
D03*
X250016D02*
D03*
X248047D02*
D03*
X246079D02*
D03*
D49*
X240429Y149500D02*
D03*
X223500D02*
D03*
D50*
X247000Y206000D02*
X247293D01*
X250293Y203000D02*
X261000D01*
X247293Y206000D02*
X250293Y203000D01*
X266138Y207956D02*
X266571Y207524D01*
X254044Y207956D02*
X266138D01*
X253500Y208500D02*
X254044Y207956D01*
X261000Y203000D02*
X261941Y203941D01*
X290262Y271000D02*
X304000D01*
X289500Y258500D02*
Y270238D01*
X290262Y271000D01*
X240160Y201340D02*
X243500Y198000D01*
X266496D01*
X240160Y201340D02*
Y203151D01*
X239000Y204311D02*
X240160Y203151D01*
X242000Y175500D02*
X271282D01*
X225500D02*
X242000D01*
X207000Y244500D02*
X215500D01*
X197500Y254000D02*
X207000Y244500D01*
X211500Y189500D02*
X225500Y175500D01*
X211500Y189500D02*
Y197000D01*
X266496Y198000D02*
X266571Y198075D01*
X201000Y207500D02*
X211500Y197000D01*
X194262Y228500D02*
X200238D01*
X193500Y229261D02*
Y235685D01*
X200238Y228500D02*
X201000Y227738D01*
X193500Y229261D02*
X194262Y228500D01*
X201000Y207500D02*
Y227738D01*
X193500Y209000D02*
Y216000D01*
X208500Y186500D02*
Y194000D01*
X193500Y209000D02*
X208500Y194000D01*
Y186500D02*
X223000Y172000D01*
X205500Y185500D02*
Y190500D01*
X199685Y196315D02*
X205500Y190500D01*
X196500Y196315D02*
X199685D01*
X205500Y185500D02*
X221500Y169500D01*
X305000Y265500D02*
Y270000D01*
X304000Y271000D02*
X305000Y270000D01*
X222500Y250000D02*
X223064Y249436D01*
Y244928D02*
Y249436D01*
X222500Y250000D02*
Y269500D01*
X197500Y276831D02*
X208933Y288264D01*
X197500Y254000D02*
Y276831D01*
X215500Y234504D02*
X215504Y234500D01*
X215500Y234504D02*
Y244500D01*
X221579Y268579D02*
X222500Y269500D01*
X231000Y278000D01*
X223064Y244928D02*
X223492Y244500D01*
Y244244D02*
Y244500D01*
X272406Y213500D02*
X272476Y213429D01*
X259000Y213500D02*
X272406D01*
X251500Y215000D02*
X251795D01*
X253311Y216515D02*
Y217811D01*
X258403Y222903D01*
X251795Y215000D02*
X253311Y216515D01*
X258403Y222903D02*
X267903D01*
X261941Y203941D02*
X266138D01*
X220000Y138000D02*
Y146705D01*
X222795Y149500D02*
X223500D01*
X220000Y146705D02*
X222795Y149500D01*
X268905Y191776D02*
X271238D01*
X269180Y191500D02*
X278500D01*
X299996Y189059D02*
X300429Y188626D01*
X297060Y189059D02*
X299996D01*
X291208Y194911D02*
X297060Y189059D01*
X272000Y192537D02*
Y196881D01*
X271238Y197642D02*
X272000Y196881D01*
X267003Y197642D02*
X271238D01*
Y191776D02*
X272000Y192537D01*
X266571Y198075D02*
X267003Y197642D01*
X300429Y188626D02*
X327374D01*
X329000Y187000D01*
Y181500D02*
Y187000D01*
X328194Y170694D02*
X329000Y171500D01*
X326194Y170694D02*
X328194D01*
X278343Y224157D02*
X278500Y224314D01*
Y231000D01*
X267903Y222903D02*
X268500Y223500D01*
X274000D01*
X275626Y221874D01*
Y213429D02*
Y221874D01*
X269500Y233000D02*
X278343Y224157D01*
X252626Y227126D02*
X258500Y233000D01*
X269500D01*
X252626Y223500D02*
Y227126D01*
X278343Y213862D02*
Y224157D01*
X325500Y239500D02*
Y268500D01*
X308000Y233000D02*
X319000D01*
X325500Y239500D01*
X301315Y292685D02*
X325500Y268500D01*
X296500Y231504D02*
Y239000D01*
X295996Y231000D02*
X296500Y231504D01*
X286410Y229150D02*
X288004Y230744D01*
X287000Y232004D02*
X288004Y231000D01*
Y230744D02*
Y231000D01*
X287000Y232004D02*
Y241630D01*
X295870Y250500D01*
X285150Y229150D02*
X286410D01*
X281925Y225925D02*
X285150Y229150D01*
X281925Y213429D02*
Y225925D01*
X256303Y150500D02*
X278500D01*
X300429Y201224D02*
X313724D01*
X324000Y211500D01*
X300449Y191795D02*
X366980D01*
X367000Y191815D01*
X300429Y191776D02*
X300449Y191795D01*
X266138Y203941D02*
X266571Y204374D01*
X249211Y139711D02*
X255500Y146000D01*
X267500D01*
X246652Y140848D02*
X256303Y150500D01*
X244093Y134106D02*
Y147212D01*
X241533Y149100D02*
X242204D01*
X240834Y149095D02*
X241506D01*
X240429Y149500D02*
X240834Y149095D01*
X242204Y149100D02*
X244093Y147212D01*
X241506Y149095D02*
X241533Y149100D01*
X213000Y133500D02*
Y159239D01*
X213761Y160000D01*
X210630Y131130D02*
X213000Y133500D01*
X213761Y160000D02*
X276000D01*
X194815Y149500D02*
X207738D01*
X209261Y163000D02*
X274500D01*
X208500Y150261D02*
Y162239D01*
X207738Y149500D02*
X208500Y150261D01*
Y162239D02*
X209261Y163000D01*
X249211Y134106D02*
Y139711D01*
X246652Y134106D02*
Y140848D01*
X272044Y179138D02*
X272476Y179571D01*
X271282Y175500D02*
X272044Y176261D01*
Y179138D01*
X223000Y172000D02*
X272000D01*
X208933Y268579D02*
X221579D01*
X233000Y214000D02*
X243374D01*
X243874Y214500D01*
X242374Y222500D02*
X243374Y223500D01*
X232996Y222500D02*
X242374D01*
X231000Y278000D02*
X298500D01*
X301315Y280815D01*
X208933Y278421D02*
X212012Y281500D01*
X280000D02*
X288000Y289500D01*
X212012Y281500D02*
X280000D01*
X301315Y292685D02*
Y293000D01*
Y280815D02*
Y292685D01*
X294500Y304000D02*
X316500D01*
X288000Y297500D02*
X294500Y304000D01*
X288000Y289500D02*
Y297500D01*
X321000Y293000D02*
Y299500D01*
X316500Y304000D02*
X321000Y299500D01*
X291374Y213429D02*
X291500Y213555D01*
X292262Y219000D02*
X305000D01*
X291500Y213555D02*
Y218238D01*
X292262Y219000D01*
X288224Y213429D02*
Y219224D01*
X285075Y220313D02*
X289761Y225000D01*
X288224Y219224D02*
X291000Y222000D01*
X285075Y213429D02*
Y220313D01*
X289761Y225000D02*
X300000D01*
X278343Y213862D02*
X278776Y213429D01*
X193500Y131130D02*
X210630D01*
X193500Y150815D02*
X194815Y149500D01*
X194318Y169682D02*
X198268D01*
X201450Y166500D01*
X193500Y170500D02*
X194318Y169682D01*
X300000Y225000D02*
X308000Y233000D01*
X270004Y240500D02*
Y240756D01*
X269988Y248984D02*
X270004Y249000D01*
X275193Y213862D02*
X275626Y213429D01*
X295870Y250500D02*
X297051D01*
X297008Y250543D02*
Y265500D01*
Y250543D02*
X297051Y250500D01*
X291000Y222000D02*
X301500D01*
X309750Y230250D01*
X320750D01*
X305000Y219000D02*
X313000Y227000D01*
X336000D01*
X339500Y230500D01*
X320750Y230250D02*
X329000Y238500D01*
Y270000D01*
X321000Y278000D02*
X329000Y270000D01*
X321000Y278000D02*
Y293000D01*
X339500Y230500D02*
Y275000D01*
X340685Y276185D02*
Y293000D01*
X339500Y275000D02*
X340685Y276185D01*
X294524Y213429D02*
X306429D01*
X317000Y224000D01*
X340000D01*
X343000Y227000D01*
Y272685D02*
X367000Y296685D01*
X343000Y227000D02*
Y272685D01*
X346000Y216500D02*
X351500Y222000D01*
X322500Y216500D02*
X346000D01*
X351500Y222000D02*
Y252500D01*
X300429Y207524D02*
X307524D01*
X320500Y220500D02*
X343000D01*
X307524Y207524D02*
X320500Y220500D01*
X343000D02*
X347000Y224500D01*
Y268000D01*
X356000Y277000D01*
X367000D01*
X356000Y257000D02*
X366685D01*
X351500Y252500D02*
X356000Y257000D01*
X300429Y204374D02*
X310374D01*
X322500Y216500D01*
X366685Y257000D02*
X367000Y257315D01*
X324000Y211500D02*
X367000D01*
X298500Y133500D02*
X299500Y132500D01*
X298500Y133500D02*
Y166500D01*
X291374Y173626D02*
Y179571D01*
Y173626D02*
X298500Y166500D01*
X294524Y179571D02*
X294594Y179500D01*
X299500D01*
X307500Y171500D01*
X319000D01*
X301364Y185476D02*
X302299D01*
X306276Y181500D02*
X319000D01*
X302299Y185476D02*
X306276Y181500D01*
X275502Y179447D02*
X275626Y179571D01*
X275502Y175502D02*
Y179447D01*
X272000Y172000D02*
X275502Y175502D01*
X221500Y169500D02*
X272500D01*
X278539Y179335D02*
X278776Y179571D01*
X278539Y175614D02*
Y179335D01*
X277859Y174859D02*
Y174933D01*
X272500Y169500D02*
X277859Y174859D01*
Y174933D02*
X278539Y175614D01*
X288000Y172000D02*
Y179346D01*
X276000Y160000D02*
X288000Y172000D01*
X201450Y166500D02*
X273000D01*
X281925Y175425D01*
X274500Y163000D02*
X285000Y173500D01*
X281925Y175425D02*
Y179571D01*
X285000Y179496D02*
X285075Y179571D01*
X285000Y173500D02*
Y179496D01*
X288000Y179346D02*
X288224Y179571D01*
X256276Y182776D02*
X259000Y185500D01*
X250000Y182776D02*
X256276D01*
X256776Y192224D02*
X260374Y188626D01*
X250000Y192224D02*
X256776D01*
X259000Y185500D02*
X266547D01*
X266571Y185476D01*
X260374Y188626D02*
X266571D01*
D51*
X239000Y192500D02*
X240224Y191276D01*
X241239D01*
X242000Y190515D01*
Y175500D02*
Y190515D01*
X222761Y183739D02*
X227769D01*
X217347Y189154D02*
X222761Y183739D01*
X217347Y189154D02*
Y192500D01*
X227769Y183739D02*
X228508Y183000D01*
D52*
X300429Y185476D02*
X301364D01*
D53*
X183929Y280236D02*
D03*
Y292047D02*
D03*
D54*
X208933Y258736D02*
D03*
Y268579D02*
D03*
Y278421D02*
D03*
D55*
Y288264D02*
D03*
D56*
X299500Y132500D02*
D03*
X319185D02*
D03*
X338870D02*
D03*
X367000Y126815D02*
D03*
Y146500D02*
D03*
Y166185D02*
D03*
Y191815D02*
D03*
Y211500D02*
D03*
Y231185D02*
D03*
Y257315D02*
D03*
Y277000D02*
D03*
Y296685D02*
D03*
X340685Y293000D02*
D03*
X321000D02*
D03*
X301315D02*
D03*
X276000D02*
D03*
X256315D02*
D03*
X236630D02*
D03*
X193500Y235685D02*
D03*
Y216000D02*
D03*
Y196315D02*
D03*
Y170500D02*
D03*
Y150815D02*
D03*
Y131130D02*
D03*
D57*
X263500Y267500D02*
D03*
X319000Y161500D02*
D03*
X329000D02*
D03*
Y171500D02*
D03*
X319000D02*
D03*
X329000Y181500D02*
D03*
X319000D02*
D03*
D58*
X259939Y122984D02*
D03*
X238482D02*
D03*
D59*
X258758Y134913D02*
D03*
X239663D02*
D03*
D60*
X247000Y206000D02*
D03*
X253500Y208500D02*
D03*
X289500Y258500D02*
D03*
X217000Y262000D02*
D03*
X229500Y264000D02*
D03*
X259000Y213500D02*
D03*
X220000Y138000D02*
D03*
X278500Y191500D02*
D03*
X290500Y197500D02*
D03*
X268500Y223500D02*
D03*
X296500Y239000D02*
D03*
X278500Y231000D02*
D03*
Y150500D02*
D03*
X267500Y146000D02*
D03*
M02*
