G04*
G04 #@! TF.GenerationSoftware,Altium Limited,Altium Designer,23.3.1 (30)*
G04*
G04 Layer_Color=8388736*
%FSLAX25Y25*%
%MOIN*%
G70*
G04*
G04 #@! TF.SameCoordinates,C0566122-47CB-4EAD-8267-09603FDD0119*
G04*
G04*
G04 #@! TF.FilePolarity,Negative*
G04*
G01*
G75*
%ADD17R,0.05288X0.05800*%
%ADD18R,0.04343X0.04737*%
%ADD19R,0.08280X0.02375*%
%ADD20R,0.05800X0.05288*%
%ADD21R,0.11824X0.09461*%
%ADD22R,0.02965X0.06706*%
%ADD23R,0.06706X0.02965*%
%ADD24R,0.05709X0.05118*%
%ADD25R,0.06410X0.10642*%
%ADD26R,0.02375X0.07690*%
%ADD27R,0.03910X0.01824*%
%ADD28R,0.01824X0.03910*%
%ADD29R,0.11233X0.07690*%
%ADD30C,0.04343*%
%ADD31C,0.06737*%
%ADD32R,0.06737X0.06737*%
%ADD33C,0.08477*%
%ADD34C,0.06312*%
%ADD35O,0.05524X0.10249*%
%ADD36C,0.05800*%
G36*
X241435Y119835D02*
X241431Y119732D01*
X241423Y119630D01*
X241411Y119527D01*
X241392Y119425D01*
X241368Y119327D01*
X241341Y119224D01*
X241305Y119130D01*
X241266Y119035D01*
X241223Y118941D01*
X241171Y118850D01*
X241116Y118764D01*
X241061Y118677D01*
X240998Y118594D01*
X240931Y118516D01*
X240860Y118441D01*
X240785Y118370D01*
X240707Y118303D01*
X240624Y118240D01*
X240537Y118185D01*
X240451Y118130D01*
X240360Y118079D01*
X240266Y118035D01*
X240171Y117996D01*
X240077Y117961D01*
X239974Y117933D01*
X239876Y117909D01*
X239774Y117890D01*
X239671Y117878D01*
X239569Y117870D01*
X239467Y117866D01*
X237498D01*
X237396Y117870D01*
X237293Y117878D01*
X237191Y117890D01*
X237089Y117909D01*
X236990Y117933D01*
X236888Y117961D01*
X236793Y117996D01*
X236699Y118035D01*
X236604Y118079D01*
X236514Y118130D01*
X236427Y118185D01*
X236341Y118240D01*
X236258Y118303D01*
X236179Y118370D01*
X236104Y118441D01*
X236034Y118516D01*
X235967Y118594D01*
X235904Y118677D01*
X235848Y118764D01*
X235793Y118850D01*
X235742Y118941D01*
X235699Y119035D01*
X235660Y119130D01*
X235624Y119224D01*
X235596Y119327D01*
X235573Y119425D01*
X235553Y119527D01*
X235541Y119630D01*
X235533Y119732D01*
X235530Y119835D01*
Y127905D01*
X233463D01*
Y131449D01*
X241435D01*
Y119835D01*
D02*
G37*
G36*
X242124Y131646D02*
X233463D01*
Y138181D01*
X242124D01*
Y131646D01*
D02*
G37*
G36*
X264959Y127905D02*
X262892D01*
Y119835D01*
X262888Y119732D01*
X262880Y119630D01*
X262868Y119527D01*
X262848Y119425D01*
X262825Y119327D01*
X262797Y119224D01*
X262762Y119130D01*
X262722Y119035D01*
X262679Y118941D01*
X262628Y118850D01*
X262573Y118764D01*
X262518Y118677D01*
X262455Y118594D01*
X262388Y118516D01*
X262317Y118441D01*
X262242Y118370D01*
X262163Y118303D01*
X262081Y118240D01*
X261994Y118185D01*
X261908Y118130D01*
X261817Y118079D01*
X261722Y118035D01*
X261628Y117996D01*
X261533Y117961D01*
X261431Y117933D01*
X261333Y117909D01*
X261230Y117890D01*
X261128Y117878D01*
X261026Y117870D01*
X260923Y117866D01*
X258955D01*
X258852Y117870D01*
X258750Y117878D01*
X258648Y117890D01*
X258545Y117909D01*
X258447Y117933D01*
X258345Y117961D01*
X258250Y117996D01*
X258155Y118035D01*
X258061Y118079D01*
X257970Y118130D01*
X257884Y118185D01*
X257797Y118240D01*
X257715Y118303D01*
X257636Y118370D01*
X257561Y118441D01*
X257490Y118516D01*
X257423Y118594D01*
X257360Y118677D01*
X257305Y118764D01*
X257250Y118850D01*
X257199Y118941D01*
X257155Y119035D01*
X257116Y119130D01*
X257081Y119224D01*
X257053Y119327D01*
X257030Y119425D01*
X257010Y119527D01*
X256998Y119630D01*
X256990Y119732D01*
X256986Y119835D01*
Y131449D01*
X264959D01*
Y127905D01*
D02*
G37*
G36*
Y131646D02*
X256297D01*
Y138181D01*
X264959D01*
Y131646D01*
D02*
G37*
D17*
X236500Y183000D02*
D03*
X228508D02*
D03*
X215504Y234500D02*
D03*
X223496D02*
D03*
X228008Y255500D02*
D03*
X236000D02*
D03*
X305000Y265500D02*
D03*
X297008D02*
D03*
X288004Y231000D02*
D03*
X295996D02*
D03*
X225008Y214000D02*
D03*
X233000D02*
D03*
X277996Y249000D02*
D03*
X270004D02*
D03*
X215500Y244500D02*
D03*
X223492D02*
D03*
X277996Y240500D02*
D03*
X270004D02*
D03*
X277996Y257000D02*
D03*
X270004D02*
D03*
X225004Y222500D02*
D03*
X232996D02*
D03*
D18*
X238827Y192095D02*
D03*
X217173D02*
D03*
X238827Y203906D02*
D03*
X217173D02*
D03*
D19*
X250000Y182776D02*
D03*
Y192224D02*
D03*
Y187500D02*
D03*
D20*
X240000Y271996D02*
D03*
Y264004D02*
D03*
X249000Y271996D02*
D03*
Y264004D02*
D03*
D21*
X315949Y250500D02*
D03*
X297051D02*
D03*
D22*
X272476Y213429D02*
D03*
X275626D02*
D03*
X278776D02*
D03*
X281925D02*
D03*
X285075D02*
D03*
X288224D02*
D03*
X291374D02*
D03*
X294524D02*
D03*
Y179571D02*
D03*
X291374D02*
D03*
X288224D02*
D03*
X285075D02*
D03*
X281925D02*
D03*
X278776D02*
D03*
X275626D02*
D03*
X272476D02*
D03*
D23*
X300429Y207524D02*
D03*
Y204374D02*
D03*
Y201224D02*
D03*
Y198075D02*
D03*
Y194925D02*
D03*
Y191776D02*
D03*
Y188626D02*
D03*
Y185476D02*
D03*
X266571D02*
D03*
Y188626D02*
D03*
Y191776D02*
D03*
Y194925D02*
D03*
Y198075D02*
D03*
Y201224D02*
D03*
Y204374D02*
D03*
Y207524D02*
D03*
D24*
X241748Y223000D02*
D03*
X251000D02*
D03*
X242248Y215000D02*
D03*
X251500D02*
D03*
D25*
X253000Y122000D02*
D03*
X245421D02*
D03*
D26*
X254329Y134106D02*
D03*
X251770D02*
D03*
X249211D02*
D03*
X246652D02*
D03*
X244093D02*
D03*
D27*
X243244Y243079D02*
D03*
Y245047D02*
D03*
Y247016D02*
D03*
Y248984D02*
D03*
Y250953D02*
D03*
Y252921D02*
D03*
X258756D02*
D03*
Y250953D02*
D03*
Y248984D02*
D03*
Y247016D02*
D03*
Y245047D02*
D03*
Y243079D02*
D03*
D28*
X246079Y255756D02*
D03*
X248047D02*
D03*
X250016D02*
D03*
X251984D02*
D03*
X253953D02*
D03*
X255921D02*
D03*
Y240244D02*
D03*
X253953D02*
D03*
X251984D02*
D03*
X250016D02*
D03*
X248047D02*
D03*
X246079D02*
D03*
D29*
X240429Y149500D02*
D03*
X223500D02*
D03*
D30*
X183929Y280236D02*
D03*
Y292047D02*
D03*
D31*
X208933Y258736D02*
D03*
Y268579D02*
D03*
Y278421D02*
D03*
D32*
Y288264D02*
D03*
D33*
X299500Y132500D02*
D03*
X319185D02*
D03*
X338870D02*
D03*
X367000Y126815D02*
D03*
Y146500D02*
D03*
Y166185D02*
D03*
Y191815D02*
D03*
Y211500D02*
D03*
Y231185D02*
D03*
Y257315D02*
D03*
Y277000D02*
D03*
Y296685D02*
D03*
X340685Y293000D02*
D03*
X321000D02*
D03*
X301315D02*
D03*
X276000D02*
D03*
X256315D02*
D03*
X236630D02*
D03*
X193500Y235685D02*
D03*
Y216000D02*
D03*
Y196315D02*
D03*
Y170500D02*
D03*
Y150815D02*
D03*
Y131130D02*
D03*
D34*
X263500Y267500D02*
D03*
X319000Y161500D02*
D03*
X329000D02*
D03*
Y171500D02*
D03*
X319000D02*
D03*
X329000Y181500D02*
D03*
X319000D02*
D03*
D35*
X259939Y122984D02*
D03*
X238482D02*
D03*
D36*
X247000Y206000D02*
D03*
X253500Y208500D02*
D03*
X289500Y258500D02*
D03*
X217000Y262000D02*
D03*
X229500Y264000D02*
D03*
X259000Y213500D02*
D03*
X220000Y138000D02*
D03*
X278500Y191500D02*
D03*
X290500Y197500D02*
D03*
X268500Y223500D02*
D03*
X296500Y239000D02*
D03*
X278500Y231000D02*
D03*
Y150500D02*
D03*
X267500Y146000D02*
D03*
M02*
