G04*
G04 #@! TF.GenerationSoftware,Altium Limited,Altium Designer,23.3.1 (30)*
G04*
G04 Layer_Physical_Order=2*
G04 Layer_Color=16711680*
%FSLAX25Y25*%
%MOIN*%
G70*
G04*
G04 #@! TF.SameCoordinates,C0566122-47CB-4EAD-8267-09603FDD0119*
G04*
G04*
G04 #@! TF.FilePolarity,Positive*
G04*
G01*
G75*
%ADD15C,0.01000*%
%ADD37R,0.04488X0.05000*%
%ADD39R,0.07480X0.01575*%
%ADD40R,0.05000X0.04488*%
%ADD50C,0.01300*%
%ADD52C,0.01200*%
%ADD53C,0.03543*%
%ADD54C,0.05937*%
%ADD55R,0.05937X0.05937*%
%ADD56C,0.07677*%
%ADD57C,0.05512*%
%ADD58O,0.04724X0.09449*%
%ADD59O,0.02874X0.05748*%
%ADD60C,0.05000*%
%ADD61R,0.04331X0.02756*%
%ADD62R,0.03150X0.03937*%
%ADD63R,0.08465X0.12795*%
%ADD64R,0.08465X0.03740*%
%ADD65R,0.04331X0.04921*%
G04:AMPARAMS|DCode=66|XSize=36.61mil|YSize=51.58mil|CornerRadius=2.75mil|HoleSize=0mil|Usage=FLASHONLY|Rotation=90.000|XOffset=0mil|YOffset=0mil|HoleType=Round|Shape=RoundedRectangle|*
%AMROUNDEDRECTD66*
21,1,0.03661,0.04608,0,0,90.0*
21,1,0.03112,0.05158,0,0,90.0*
1,1,0.00549,0.02304,0.01556*
1,1,0.00549,0.02304,-0.01556*
1,1,0.00549,-0.02304,-0.01556*
1,1,0.00549,-0.02304,0.01556*
%
%ADD66ROUNDEDRECTD66*%
G04:AMPARAMS|DCode=67|XSize=127.56mil|YSize=51.58mil|CornerRadius=3.87mil|HoleSize=0mil|Usage=FLASHONLY|Rotation=90.000|XOffset=0mil|YOffset=0mil|HoleType=Round|Shape=RoundedRectangle|*
%AMROUNDEDRECTD67*
21,1,0.12756,0.04384,0,0,90.0*
21,1,0.11982,0.05158,0,0,90.0*
1,1,0.00774,0.02192,0.05991*
1,1,0.00774,0.02192,-0.05991*
1,1,0.00774,-0.02192,-0.05991*
1,1,0.00774,-0.02192,0.05991*
%
%ADD67ROUNDEDRECTD67*%
G04:AMPARAMS|DCode=68|XSize=51.58mil|YSize=24.41mil|CornerRadius=3.05mil|HoleSize=0mil|Usage=FLASHONLY|Rotation=180.000|XOffset=0mil|YOffset=0mil|HoleType=Round|Shape=RoundedRectangle|*
%AMROUNDEDRECTD68*
21,1,0.05158,0.01831,0,0,180.0*
21,1,0.04547,0.02441,0,0,180.0*
1,1,0.00610,-0.02274,0.00915*
1,1,0.00610,0.02274,0.00915*
1,1,0.00610,0.02274,-0.00915*
1,1,0.00610,-0.02274,-0.00915*
%
%ADD68ROUNDEDRECTD68*%
%ADD69O,0.04134X0.08268*%
%ADD70R,0.06850X0.04842*%
%ADD71R,0.04842X0.06850*%
%ADD72C,0.02000*%
G36*
X386500Y110000D02*
X171355D01*
X171003Y110355D01*
X173000Y316000D01*
X173500Y316500D01*
X386500D01*
Y110000D01*
D02*
G37*
%LPC*%
G36*
X190732Y303574D02*
X186182D01*
Y298237D01*
X190732D01*
Y303574D01*
D02*
G37*
G36*
X181676D02*
X177127D01*
Y298237D01*
X181676D01*
Y303574D01*
D02*
G37*
G36*
X367598Y301224D02*
X366403D01*
X365248Y300914D01*
X364213Y300317D01*
X363368Y299472D01*
X362771Y298437D01*
X362461Y297283D01*
Y296088D01*
X362771Y294933D01*
X363368Y293898D01*
X364213Y293053D01*
X365248Y292456D01*
X366403Y292146D01*
X367598D01*
X368752Y292456D01*
X369787Y293053D01*
X370632Y293898D01*
X371229Y294933D01*
X371539Y296088D01*
Y297283D01*
X371229Y298437D01*
X370632Y299472D01*
X369787Y300317D01*
X368752Y300914D01*
X367598Y301224D01*
D02*
G37*
G36*
X212601Y291932D02*
X205264D01*
Y289640D01*
X202764D01*
X202764Y289640D01*
X202237Y289535D01*
X201790Y289237D01*
X198430Y285876D01*
X182000D01*
X182000Y285876D01*
X181473Y285772D01*
X181027Y285473D01*
X174527Y278973D01*
X174228Y278527D01*
X174124Y278000D01*
Y241500D01*
X174228Y240973D01*
X174527Y240527D01*
X190527Y224527D01*
X190973Y224228D01*
X191500Y224124D01*
X215676D01*
X216632Y223168D01*
Y219200D01*
X215064D01*
Y212800D01*
X218072D01*
Y209621D01*
X215324D01*
Y203379D01*
X218072D01*
Y199700D01*
X215056D01*
Y193300D01*
X216623D01*
Y191200D01*
X215056D01*
Y184800D01*
X216623D01*
Y183200D01*
X215056D01*
Y176800D01*
X216623D01*
Y171358D01*
X216728Y170831D01*
X217027Y170385D01*
X218018Y169394D01*
X217827Y168932D01*
X214055D01*
X213528Y168827D01*
X213082Y168528D01*
X213082Y168528D01*
X211527Y166973D01*
X211228Y166527D01*
X211123Y166000D01*
Y138000D01*
Y124000D01*
X211228Y123473D01*
X211527Y123027D01*
X220527Y114027D01*
X220973Y113728D01*
X221500Y113624D01*
X348000D01*
X348527Y113728D01*
X348973Y114027D01*
X359973Y125027D01*
X360272Y125473D01*
X360377Y126000D01*
Y150430D01*
X365570Y155624D01*
X372000D01*
X372527Y155728D01*
X372973Y156027D01*
X376473Y159527D01*
X376772Y159973D01*
X376876Y160500D01*
X376876Y160500D01*
Y184500D01*
Y222685D01*
X376876Y222685D01*
X376772Y223212D01*
X376473Y223658D01*
X376473Y223658D01*
X371035Y229097D01*
X371229Y229433D01*
X371539Y230588D01*
Y231783D01*
X371229Y232937D01*
X370632Y233972D01*
X369787Y234817D01*
X368752Y235414D01*
X367598Y235724D01*
X366403D01*
X365248Y235414D01*
X364213Y234817D01*
X363368Y233972D01*
X362771Y232937D01*
X362461Y231783D01*
Y230588D01*
X362771Y229433D01*
X363368Y228398D01*
X364213Y227553D01*
X365248Y226956D01*
X366403Y226646D01*
X367598D01*
X368752Y226956D01*
X369088Y227150D01*
X374124Y222115D01*
Y185876D01*
X332655D01*
X332128Y185772D01*
X331682Y185473D01*
X330711Y184503D01*
X330334Y184720D01*
X329455Y184956D01*
X328545D01*
X327666Y184720D01*
X326878Y184265D01*
X326235Y183622D01*
X325780Y182834D01*
X325544Y181955D01*
Y181045D01*
X325780Y180166D01*
X326235Y179378D01*
X326878Y178735D01*
X327666Y178280D01*
X328545Y178044D01*
X329455D01*
X330334Y178280D01*
X331122Y178735D01*
X331765Y179378D01*
X332220Y180166D01*
X332456Y181045D01*
Y181955D01*
X332371Y182270D01*
X333225Y183124D01*
X374124D01*
Y161070D01*
X371430Y158376D01*
X365000D01*
X364473Y158272D01*
X364027Y157973D01*
X358027Y151973D01*
X357728Y151527D01*
X357624Y151000D01*
Y126570D01*
X347430Y116376D01*
X222070D01*
X213877Y124570D01*
Y136624D01*
X217100D01*
X217439Y136035D01*
X218035Y135439D01*
X218765Y135018D01*
X219579Y134800D01*
X220421D01*
X221235Y135018D01*
X221965Y135439D01*
X222561Y136035D01*
X222982Y136765D01*
X223200Y137579D01*
Y138421D01*
X222982Y139235D01*
X222561Y139965D01*
X221965Y140561D01*
X221235Y140982D01*
X220421Y141200D01*
X219579D01*
X218765Y140982D01*
X218035Y140561D01*
X217439Y139965D01*
X217100Y139376D01*
X213877D01*
Y165430D01*
X214625Y166179D01*
X219233D01*
Y164985D01*
X229098D01*
Y170125D01*
X221180D01*
X219376Y171928D01*
Y176800D01*
X220944D01*
Y183200D01*
X219376D01*
Y184800D01*
X220944D01*
Y191200D01*
X219376D01*
Y193300D01*
X220944D01*
Y199700D01*
X220825D01*
Y203379D01*
X223574D01*
Y209621D01*
X220825D01*
Y212800D01*
X220952D01*
Y219200D01*
X219385D01*
Y223168D01*
X221973Y225757D01*
X221973Y225757D01*
X222272Y226204D01*
X222376Y226730D01*
X222376Y226730D01*
Y232430D01*
X224228Y234281D01*
X224770Y234117D01*
X224778Y234079D01*
X224993Y233757D01*
X225316Y233542D01*
X225696Y233466D01*
X230304D01*
X230684Y233542D01*
X231007Y233757D01*
X231222Y234079D01*
X231298Y234460D01*
Y237572D01*
X231222Y237952D01*
X231007Y238275D01*
X230684Y238490D01*
X230304Y238566D01*
X225696D01*
X225316Y238490D01*
X224993Y238275D01*
X224778Y237952D01*
X224702Y237572D01*
Y237392D01*
X224016D01*
X224016Y237392D01*
X223489Y237287D01*
X223042Y236989D01*
X223042Y236989D01*
X220027Y233973D01*
X219728Y233527D01*
X219623Y233000D01*
Y227301D01*
X218008Y225685D01*
X217220Y226473D01*
X216773Y226772D01*
X216247Y226876D01*
X192070D01*
X176876Y242070D01*
Y268313D01*
X177127Y268709D01*
X177376Y268709D01*
X181676D01*
Y274046D01*
X177376D01*
X177127Y274046D01*
X176876Y274443D01*
Y277430D01*
X182570Y283123D01*
X183134D01*
X183234Y282624D01*
X182529Y282332D01*
X181834Y281636D01*
X181457Y280728D01*
Y279745D01*
X181834Y278836D01*
X182529Y278141D01*
X183438Y277765D01*
X184421D01*
X185329Y278141D01*
X186024Y278836D01*
X186401Y279745D01*
Y280728D01*
X186024Y281636D01*
X185329Y282332D01*
X184624Y282624D01*
X184724Y283123D01*
X199000D01*
X199527Y283228D01*
X199973Y283527D01*
X203334Y286887D01*
X205264D01*
Y284595D01*
X212601D01*
Y291932D01*
D02*
G37*
G36*
X184421Y294519D02*
X183438D01*
X182529Y294143D01*
X181834Y293447D01*
X181457Y292539D01*
Y291556D01*
X181834Y290647D01*
X182529Y289952D01*
X183438Y289576D01*
X184421D01*
X185329Y289952D01*
X186024Y290647D01*
X186401Y291556D01*
Y292539D01*
X186024Y293447D01*
X185329Y294143D01*
X184421Y294519D01*
D02*
G37*
G36*
X341283Y297539D02*
X340088D01*
X338933Y297229D01*
X337898Y296632D01*
X337053Y295787D01*
X336456Y294752D01*
X336146Y293598D01*
Y292403D01*
X336456Y291248D01*
X337053Y290213D01*
X337898Y289368D01*
X338933Y288771D01*
X340088Y288461D01*
X341283D01*
X342437Y288771D01*
X343472Y289368D01*
X344317Y290213D01*
X344914Y291248D01*
X345224Y292403D01*
Y293598D01*
X344914Y294752D01*
X344317Y295787D01*
X343472Y296632D01*
X342437Y297229D01*
X341283Y297539D01*
D02*
G37*
G36*
X321598D02*
X320403D01*
X319248Y297229D01*
X318213Y296632D01*
X317368Y295787D01*
X316771Y294752D01*
X316461Y293598D01*
Y292403D01*
X316771Y291248D01*
X317368Y290213D01*
X318213Y289368D01*
X319248Y288771D01*
X320403Y288461D01*
X321598D01*
X322752Y288771D01*
X323787Y289368D01*
X324632Y290213D01*
X325229Y291248D01*
X325539Y292403D01*
Y293598D01*
X325229Y294752D01*
X324632Y295787D01*
X323787Y296632D01*
X322752Y297229D01*
X321598Y297539D01*
D02*
G37*
G36*
X301912D02*
X300717D01*
X299563Y297229D01*
X298528Y296632D01*
X297683Y295787D01*
X297086Y294752D01*
X296776Y293598D01*
Y292403D01*
X297086Y291248D01*
X297683Y290213D01*
X298528Y289368D01*
X299563Y288771D01*
X300717Y288461D01*
X301912D01*
X303067Y288771D01*
X304102Y289368D01*
X304947Y290213D01*
X305544Y291248D01*
X305854Y292403D01*
Y293598D01*
X305544Y294752D01*
X304947Y295787D01*
X304102Y296632D01*
X303067Y297229D01*
X301912Y297539D01*
D02*
G37*
G36*
X276597D02*
X275402D01*
X274248Y297229D01*
X273213Y296632D01*
X272368Y295787D01*
X271771Y294752D01*
X271461Y293598D01*
Y292403D01*
X271771Y291248D01*
X271965Y290912D01*
X268527Y287473D01*
X268228Y287027D01*
X268124Y286500D01*
Y254570D01*
X262527Y248973D01*
X262228Y248527D01*
X262123Y248000D01*
Y218570D01*
X260078Y216524D01*
X259421Y216700D01*
X258579D01*
X257765Y216482D01*
X257035Y216061D01*
X256439Y215465D01*
X256018Y214735D01*
X255800Y213921D01*
Y213079D01*
X256018Y212265D01*
X256439Y211535D01*
X257035Y210939D01*
X257765Y210518D01*
X258579Y210300D01*
X259421D01*
X260235Y210518D01*
X260965Y210939D01*
X261561Y211535D01*
X261982Y212265D01*
X262200Y213079D01*
Y213921D01*
X262024Y214578D01*
X264473Y217027D01*
X264772Y217473D01*
X264877Y218000D01*
Y222728D01*
X265376Y222793D01*
X265518Y222265D01*
X265939Y221535D01*
X266535Y220939D01*
X267265Y220518D01*
X268079Y220300D01*
X268921D01*
X269735Y220518D01*
X270465Y220939D01*
X271061Y221535D01*
X271482Y222265D01*
X271700Y223079D01*
Y223921D01*
X271482Y224735D01*
X271061Y225465D01*
X270465Y226061D01*
X269877Y226400D01*
Y242930D01*
X276473Y249527D01*
X276473Y249527D01*
X276772Y249973D01*
X276876Y250500D01*
Y261060D01*
X278826D01*
Y266948D01*
X272426D01*
Y261060D01*
X274124D01*
Y251070D01*
X267527Y244473D01*
X267228Y244027D01*
X267124Y243500D01*
Y226400D01*
X266535Y226061D01*
X265939Y225465D01*
X265518Y224735D01*
X265376Y224207D01*
X264877Y224272D01*
Y247430D01*
X270473Y253027D01*
X270772Y253473D01*
X270877Y254000D01*
Y285930D01*
X273912Y288965D01*
X274248Y288771D01*
X275402Y288461D01*
X276597D01*
X277752Y288771D01*
X278787Y289368D01*
X279632Y290213D01*
X280229Y291248D01*
X280539Y292403D01*
Y293598D01*
X280229Y294752D01*
X279632Y295787D01*
X278787Y296632D01*
X277752Y297229D01*
X276597Y297539D01*
D02*
G37*
G36*
X209416Y282090D02*
X208450D01*
X207517Y281840D01*
X206680Y281357D01*
X205997Y280674D01*
X205515Y279837D01*
X205264Y278904D01*
Y277938D01*
X205515Y277005D01*
X205997Y276169D01*
X206680Y275486D01*
X207517Y275003D01*
X208450Y274753D01*
X209416D01*
X210349Y275003D01*
X211186Y275486D01*
X211869Y276169D01*
X212351Y277005D01*
X212601Y277938D01*
Y278904D01*
X212351Y279837D01*
X211869Y280674D01*
X211186Y281357D01*
X210349Y281840D01*
X209416Y282090D01*
D02*
G37*
G36*
X367598Y281539D02*
X366403D01*
X365248Y281229D01*
X364213Y280632D01*
X363368Y279787D01*
X362771Y278752D01*
X362461Y277597D01*
Y276402D01*
X362771Y275248D01*
X363368Y274213D01*
X364213Y273368D01*
X365248Y272771D01*
X366403Y272461D01*
X367598D01*
X368752Y272771D01*
X369787Y273368D01*
X370632Y274213D01*
X371229Y275248D01*
X371539Y276402D01*
Y277597D01*
X371229Y278752D01*
X370632Y279787D01*
X369787Y280632D01*
X368752Y281229D01*
X367598Y281539D01*
D02*
G37*
G36*
X296436Y275700D02*
X290548D01*
Y269500D01*
X290548Y269300D01*
X290172Y269000D01*
X288820D01*
X288444Y269300D01*
X288444Y269500D01*
Y275700D01*
X282556D01*
Y271247D01*
X280527Y269217D01*
X280228Y268771D01*
X280123Y268244D01*
Y234863D01*
X279346Y234086D01*
X278921Y234200D01*
X278079D01*
X277265Y233982D01*
X276535Y233561D01*
X275939Y232965D01*
X275518Y232235D01*
X275300Y231421D01*
Y230579D01*
X275518Y229765D01*
X275939Y229035D01*
X276535Y228439D01*
X277265Y228018D01*
X278079Y227800D01*
X278921D01*
X279735Y228018D01*
X280465Y228439D01*
X281061Y229035D01*
X281482Y229765D01*
X281700Y230579D01*
Y231421D01*
X281482Y232235D01*
X281448Y232294D01*
X282473Y233320D01*
X282772Y233767D01*
X282876Y234293D01*
Y267674D01*
X284503Y269300D01*
X284884D01*
X285260Y269000D01*
X285260Y268800D01*
Y266000D01*
X291748D01*
Y268800D01*
X291748Y269000D01*
X292124Y269300D01*
X296436D01*
Y271124D01*
X311930D01*
X314623Y268430D01*
Y261500D01*
X314728Y260973D01*
X315027Y260527D01*
X321027Y254527D01*
X321473Y254228D01*
X322000Y254123D01*
X326152D01*
X326328Y253860D01*
X326661Y253638D01*
X327053Y253560D01*
X331600D01*
X331993Y253638D01*
X332325Y253860D01*
X332547Y254192D01*
X332625Y254585D01*
Y256415D01*
X332547Y256807D01*
X332325Y257140D01*
X331993Y257362D01*
X331600Y257440D01*
X327053D01*
X326661Y257362D01*
X326328Y257140D01*
X326152Y256876D01*
X322570D01*
X317376Y262070D01*
Y269000D01*
X317376Y269000D01*
X317272Y269527D01*
X316973Y269973D01*
X313473Y273473D01*
X313027Y273772D01*
X312500Y273877D01*
X296436D01*
Y275700D01*
D02*
G37*
G36*
X190732Y274046D02*
X186182D01*
Y268709D01*
X190732D01*
Y274046D01*
D02*
G37*
G36*
X331600Y267746D02*
X329827D01*
Y266000D01*
X332931D01*
Y266415D01*
X332830Y266925D01*
X332541Y267356D01*
X332110Y267645D01*
X331600Y267746D01*
D02*
G37*
G36*
X328827D02*
X327053D01*
X326544Y267645D01*
X326112Y267356D01*
X325824Y266925D01*
X325723Y266415D01*
Y266000D01*
X328827D01*
Y267746D01*
D02*
G37*
G36*
X209416Y272247D02*
X208450D01*
X207517Y271997D01*
X206680Y271514D01*
X205997Y270831D01*
X205515Y269995D01*
X205264Y269062D01*
Y268096D01*
X205515Y267163D01*
X205997Y266326D01*
X206680Y265643D01*
X207517Y265160D01*
X208450Y264910D01*
X209416D01*
X210349Y265160D01*
X211186Y265643D01*
X211869Y266326D01*
X212351Y267163D01*
X212601Y268096D01*
Y269062D01*
X212351Y269995D01*
X211869Y270831D01*
X211186Y271514D01*
X210349Y271997D01*
X209416Y272247D01*
D02*
G37*
G36*
X263955Y270956D02*
X263045D01*
X262166Y270720D01*
X261378Y270265D01*
X260735Y269622D01*
X260280Y268834D01*
X260044Y267955D01*
Y267045D01*
X260280Y266166D01*
X260735Y265378D01*
X261378Y264735D01*
X262166Y264280D01*
X263045Y264044D01*
X263955D01*
X264834Y264280D01*
X265622Y264735D01*
X266265Y265378D01*
X266720Y266166D01*
X266956Y267045D01*
Y267955D01*
X266720Y268834D01*
X266265Y269622D01*
X265622Y270265D01*
X264834Y270720D01*
X263955Y270956D01*
D02*
G37*
G36*
X332931Y265000D02*
X329827D01*
Y263254D01*
X331600D01*
X332110Y263355D01*
X332541Y263644D01*
X332830Y264075D01*
X332931Y264585D01*
Y265000D01*
D02*
G37*
G36*
X328827D02*
X325723D01*
Y264585D01*
X325824Y264075D01*
X326112Y263644D01*
X326544Y263355D01*
X327053Y263254D01*
X328827D01*
Y265000D01*
D02*
G37*
G36*
X217500Y265490D02*
Y262500D01*
X220490D01*
X220262Y263351D01*
X219801Y264149D01*
X219149Y264801D01*
X218351Y265262D01*
X217500Y265490D01*
D02*
G37*
G36*
X216500D02*
X215649Y265262D01*
X214851Y264801D01*
X214199Y264149D01*
X213738Y263351D01*
X213510Y262500D01*
X216500D01*
Y265490D01*
D02*
G37*
G36*
X299440Y268700D02*
X293552D01*
Y264442D01*
X293374Y264177D01*
X293269Y263650D01*
X293374Y263123D01*
X293552Y262858D01*
Y262300D01*
X294513D01*
X294646Y262274D01*
X294902D01*
X295120Y261807D01*
Y259377D01*
X292578D01*
X292482Y259735D01*
X292061Y260465D01*
X291465Y261061D01*
X290735Y261482D01*
X290668Y261500D01*
X290734Y262000D01*
X291748D01*
Y265000D01*
X285260D01*
Y262000D01*
X288266D01*
X288332Y261500D01*
X288265Y261482D01*
X287535Y261061D01*
X286939Y260465D01*
X286518Y259735D01*
X286300Y258921D01*
Y258079D01*
X286518Y257265D01*
X286939Y256535D01*
X287535Y255939D01*
X288265Y255518D01*
X289079Y255300D01*
X289921D01*
X290735Y255518D01*
X291465Y255939D01*
X292061Y256535D01*
X292112Y256624D01*
X295120D01*
Y249066D01*
X288819Y242765D01*
X288520Y242319D01*
X288416Y241792D01*
Y199941D01*
X287939Y199465D01*
X287518Y198735D01*
X287300Y197921D01*
Y197079D01*
X287476Y196423D01*
X283930Y192876D01*
X281400D01*
X281061Y193465D01*
X280465Y194061D01*
X279735Y194482D01*
X278921Y194700D01*
X278079D01*
X277265Y194482D01*
X276535Y194061D01*
X275939Y193465D01*
X275518Y192735D01*
X275300Y191921D01*
Y191079D01*
X275518Y190265D01*
X275939Y189535D01*
X276535Y188939D01*
X277265Y188518D01*
X278079Y188300D01*
X278921D01*
X279735Y188518D01*
X280465Y188939D01*
X281061Y189535D01*
X281400Y190124D01*
X284500D01*
X285027Y190228D01*
X285473Y190527D01*
X289422Y194476D01*
X290079Y194300D01*
X290921D01*
X291735Y194518D01*
X292465Y194939D01*
X293061Y195535D01*
X293482Y196265D01*
X293700Y197079D01*
Y197921D01*
X293482Y198735D01*
X293061Y199465D01*
X292465Y200061D01*
X291735Y200482D01*
X291168Y200634D01*
Y241222D01*
X297469Y247523D01*
X297768Y247969D01*
X297872Y248496D01*
Y258000D01*
Y262300D01*
X299440D01*
Y264379D01*
X304416D01*
X304453Y264193D01*
X304675Y263860D01*
X305007Y263638D01*
X305400Y263560D01*
X309947D01*
X310339Y263638D01*
X310671Y263860D01*
X310894Y264193D01*
X310972Y264585D01*
Y266415D01*
X310894Y266808D01*
X310671Y267140D01*
X310339Y267362D01*
X309947Y267440D01*
X305400D01*
X305007Y267362D01*
X304675Y267140D01*
X304670Y267132D01*
X299440D01*
Y268700D01*
D02*
G37*
G36*
X209455Y262705D02*
X209433D01*
Y259236D01*
X212901D01*
Y259259D01*
X212631Y260268D01*
X212109Y261173D01*
X211370Y261912D01*
X210465Y262434D01*
X209455Y262705D01*
D02*
G37*
G36*
X208433D02*
X208411D01*
X207401Y262434D01*
X206496Y261912D01*
X205757Y261173D01*
X205235Y260268D01*
X204964Y259259D01*
Y259236D01*
X208433D01*
Y262705D01*
D02*
G37*
G36*
X279500Y279377D02*
X278973Y279272D01*
X278527Y278973D01*
X276503Y276949D01*
X276204Y276503D01*
X276099Y275976D01*
Y274940D01*
X272426D01*
Y269052D01*
X278826D01*
Y273457D01*
X278853Y273590D01*
X278852Y273590D01*
Y275406D01*
X280070Y276624D01*
X313430D01*
X318623Y271430D01*
Y264000D01*
X318728Y263473D01*
X319027Y263027D01*
X322527Y259527D01*
X322973Y259228D01*
X323500Y259123D01*
X323500Y259123D01*
X326152D01*
X326328Y258860D01*
X326661Y258638D01*
X327053Y258560D01*
X331600D01*
X331993Y258638D01*
X332325Y258860D01*
X332547Y259192D01*
X332625Y259585D01*
Y261415D01*
X332547Y261807D01*
X332325Y262140D01*
X331993Y262362D01*
X331600Y262440D01*
X327053D01*
X326661Y262362D01*
X326328Y262140D01*
X326152Y261877D01*
X324070D01*
X321376Y264570D01*
Y272000D01*
X321272Y272527D01*
X320973Y272973D01*
X314973Y278973D01*
X314527Y279272D01*
X314000Y279377D01*
X279500D01*
X279500Y279377D01*
D02*
G37*
G36*
X309947Y262440D02*
X305400D01*
X305007Y262362D01*
X304675Y262140D01*
X304453Y261807D01*
X304375Y261415D01*
Y259585D01*
X304453Y259192D01*
X304675Y258860D01*
X305007Y258638D01*
X305400Y258560D01*
X309947D01*
X310339Y258638D01*
X310671Y258860D01*
X310894Y259192D01*
X310972Y259585D01*
Y261415D01*
X310894Y261807D01*
X310671Y262140D01*
X310339Y262362D01*
X309947Y262440D01*
D02*
G37*
G36*
X220490Y261500D02*
X217500D01*
Y258510D01*
X218351Y258738D01*
X219149Y259199D01*
X219801Y259851D01*
X220262Y260649D01*
X220490Y261500D01*
D02*
G37*
G36*
X216500D02*
X213510D01*
X213738Y260649D01*
X214199Y259851D01*
X214851Y259199D01*
X215649Y258738D01*
X216500Y258510D01*
Y261500D01*
D02*
G37*
G36*
X212901Y258236D02*
X209433D01*
Y254768D01*
X209455D01*
X210465Y255038D01*
X211370Y255561D01*
X212109Y256299D01*
X212631Y257204D01*
X212901Y258214D01*
Y258236D01*
D02*
G37*
G36*
X208433D02*
X204964D01*
Y258214D01*
X205235Y257204D01*
X205757Y256299D01*
X206496Y255561D01*
X207401Y255038D01*
X208411Y254768D01*
X208433D01*
Y258236D01*
D02*
G37*
G36*
X309947Y257440D02*
X305400D01*
X305007Y257362D01*
X304675Y257140D01*
X304453Y256807D01*
X304375Y256415D01*
Y254585D01*
X304453Y254192D01*
X304675Y253860D01*
X305007Y253638D01*
X305400Y253560D01*
X309947D01*
X310339Y253638D01*
X310671Y253860D01*
X310894Y254192D01*
X310972Y254585D01*
Y256415D01*
X310894Y256807D01*
X310671Y257140D01*
X310339Y257362D01*
X309947Y257440D01*
D02*
G37*
G36*
X367598Y261854D02*
X366403D01*
X365248Y261544D01*
X364213Y260947D01*
X363368Y260102D01*
X362771Y259067D01*
X362461Y257912D01*
Y256717D01*
X362771Y255563D01*
X363368Y254528D01*
X364213Y253683D01*
X365248Y253086D01*
X366403Y252776D01*
X367598D01*
X368752Y253086D01*
X369787Y253683D01*
X370632Y254528D01*
X371229Y255563D01*
X371539Y256717D01*
Y257912D01*
X371229Y259067D01*
X370632Y260102D01*
X369787Y260947D01*
X368752Y261544D01*
X367598Y261854D01*
D02*
G37*
G36*
X351736Y252000D02*
X348992D01*
Y249000D01*
X351736D01*
Y252000D01*
D02*
G37*
G36*
X347992D02*
X345248D01*
Y249000D01*
X347992D01*
Y252000D01*
D02*
G37*
G36*
X256912Y297539D02*
X255717D01*
X254563Y297229D01*
X253528Y296632D01*
X252683Y295787D01*
X252086Y294752D01*
X251776Y293598D01*
Y292403D01*
X252086Y291248D01*
X252683Y290213D01*
X253528Y289368D01*
X254563Y288771D01*
X254939Y288670D01*
Y256385D01*
X245027Y246473D01*
X244846Y246203D01*
X244315Y246308D01*
X244272Y246527D01*
X243973Y246973D01*
X238006Y252940D01*
Y288670D01*
X238382Y288771D01*
X239417Y289368D01*
X240262Y290213D01*
X240859Y291248D01*
X241169Y292403D01*
Y293598D01*
X240859Y294752D01*
X240262Y295787D01*
X239417Y296632D01*
X238382Y297229D01*
X237228Y297539D01*
X236033D01*
X234878Y297229D01*
X233843Y296632D01*
X232998Y295787D01*
X232401Y294752D01*
X232091Y293598D01*
Y292403D01*
X232401Y291248D01*
X232998Y290213D01*
X233843Y289368D01*
X234878Y288771D01*
X235254Y288670D01*
Y252370D01*
X235358Y251843D01*
X235657Y251397D01*
X241623Y245430D01*
Y242900D01*
X241124Y242748D01*
X240973Y242973D01*
X230876Y253070D01*
Y261100D01*
X231465Y261439D01*
X232061Y262035D01*
X232482Y262765D01*
X232700Y263579D01*
Y264421D01*
X232482Y265235D01*
X232061Y265965D01*
X231465Y266561D01*
X230735Y266982D01*
X229921Y267200D01*
X229079D01*
X228265Y266982D01*
X227535Y266561D01*
X226939Y265965D01*
X226518Y265235D01*
X226300Y264421D01*
Y263579D01*
X226518Y262765D01*
X226939Y262035D01*
X227535Y261439D01*
X228123Y261100D01*
Y252500D01*
X228228Y251973D01*
X228527Y251527D01*
X238623Y241430D01*
Y201500D01*
X238728Y200973D01*
X239027Y200527D01*
X243027Y196527D01*
X243027Y196527D01*
X243473Y196228D01*
X244000Y196124D01*
X247623D01*
Y181195D01*
X247728Y180668D01*
X248027Y180222D01*
X256995Y171253D01*
Y166800D01*
X258128D01*
Y165200D01*
X256560D01*
Y163376D01*
X251932D01*
Y165598D01*
X242068D01*
Y151402D01*
X249986D01*
X276861Y124527D01*
X277308Y124228D01*
X277329Y124224D01*
X278527Y123027D01*
X278973Y122728D01*
X279500Y122624D01*
X348238D01*
X348765Y122728D01*
X349212Y123027D01*
X351473Y125288D01*
X351473Y125288D01*
X351772Y125735D01*
X351876Y126261D01*
X351876Y126262D01*
Y149115D01*
X364912Y162150D01*
X365248Y161956D01*
X366403Y161646D01*
X367598D01*
X368752Y161956D01*
X369787Y162553D01*
X370632Y163398D01*
X371229Y164433D01*
X371539Y165587D01*
Y166782D01*
X371229Y167937D01*
X370632Y168972D01*
X369787Y169817D01*
X368752Y170414D01*
X367598Y170724D01*
X366403D01*
X365248Y170414D01*
X364213Y169817D01*
X363368Y168972D01*
X362771Y167937D01*
X362461Y166782D01*
Y165587D01*
X362771Y164433D01*
X362965Y164097D01*
X349527Y150658D01*
X349228Y150212D01*
X349124Y149685D01*
Y126832D01*
X347668Y125376D01*
X280070D01*
X278973Y126473D01*
X278527Y126772D01*
X278505Y126776D01*
X251932Y153349D01*
Y160624D01*
X256560D01*
Y158800D01*
X262448D01*
Y165200D01*
X260880D01*
Y166800D01*
X262883D01*
Y173200D01*
X258942D01*
X250377Y181765D01*
Y196738D01*
X250377Y196739D01*
X250272Y197265D01*
X249973Y197712D01*
X249973Y197712D01*
X249212Y198473D01*
X248765Y198772D01*
X248238Y198876D01*
X244570D01*
X241376Y202070D01*
Y209100D01*
X241877Y209252D01*
X242027Y209027D01*
X243976Y207078D01*
X243800Y206421D01*
Y205579D01*
X244018Y204765D01*
X244439Y204035D01*
X245035Y203439D01*
X245765Y203018D01*
X246579Y202800D01*
X247421D01*
X248235Y203018D01*
X248965Y203439D01*
X249561Y204035D01*
X249982Y204765D01*
X250200Y205579D01*
Y206421D01*
X249982Y207235D01*
X249561Y207965D01*
X248965Y208561D01*
X248235Y208982D01*
X247421Y209200D01*
X246579D01*
X245922Y209024D01*
X244376Y210570D01*
Y228600D01*
X244877Y228752D01*
X245027Y228527D01*
X252123Y221430D01*
Y211400D01*
X251535Y211061D01*
X250939Y210465D01*
X250518Y209735D01*
X250300Y208921D01*
Y208079D01*
X250518Y207265D01*
X250939Y206535D01*
X251535Y205939D01*
X252265Y205518D01*
X253079Y205300D01*
X253921D01*
X254735Y205518D01*
X255465Y205939D01*
X256061Y206535D01*
X256482Y207265D01*
X256700Y208079D01*
Y208921D01*
X256482Y209735D01*
X256061Y210465D01*
X255465Y211061D01*
X254876Y211400D01*
Y222000D01*
X254772Y222527D01*
X254473Y222973D01*
X247376Y230070D01*
Y244930D01*
X257288Y254842D01*
X257587Y255288D01*
X257691Y255815D01*
Y288670D01*
X258067Y288771D01*
X259102Y289368D01*
X259947Y290213D01*
X260544Y291248D01*
X260854Y292403D01*
Y293598D01*
X260544Y294752D01*
X259947Y295787D01*
X259102Y296632D01*
X258067Y297229D01*
X256912Y297539D01*
D02*
G37*
G36*
X331600Y252440D02*
X327053D01*
X326661Y252362D01*
X326328Y252140D01*
X326106Y251807D01*
X326028Y251415D01*
Y249585D01*
X326106Y249193D01*
X326328Y248860D01*
X326661Y248638D01*
X327053Y248560D01*
X330679D01*
X331298Y247940D01*
X331091Y247440D01*
X327053D01*
X326661Y247362D01*
X326328Y247140D01*
X326152Y246877D01*
X323000D01*
X323000Y246877D01*
X322473Y246772D01*
X322027Y246473D01*
X322027Y246473D01*
X313527Y237973D01*
X313228Y237527D01*
X313123Y237000D01*
Y196070D01*
X290430Y173376D01*
X280500D01*
X279973Y173272D01*
X279527Y172973D01*
X279527Y172973D01*
X272527Y165973D01*
X272228Y165527D01*
X272124Y165000D01*
Y152570D01*
X268578Y149024D01*
X267921Y149200D01*
X267079D01*
X266265Y148982D01*
X265535Y148561D01*
X264939Y147965D01*
X264518Y147235D01*
X264300Y146421D01*
Y145579D01*
X264518Y144765D01*
X264939Y144035D01*
X265535Y143439D01*
X266265Y143018D01*
X267079Y142800D01*
X267921D01*
X268735Y143018D01*
X269465Y143439D01*
X270061Y144035D01*
X270482Y144765D01*
X270700Y145579D01*
Y146421D01*
X270524Y147078D01*
X274473Y151027D01*
X274772Y151473D01*
X274876Y152000D01*
Y164430D01*
X281070Y170624D01*
X283100D01*
X283252Y170124D01*
X283027Y169973D01*
X283027Y169973D01*
X277527Y164473D01*
X277228Y164027D01*
X277123Y163500D01*
Y153400D01*
X276535Y153061D01*
X275939Y152465D01*
X275518Y151735D01*
X275300Y150921D01*
Y150079D01*
X275518Y149265D01*
X275939Y148535D01*
X276535Y147939D01*
X277265Y147518D01*
X278079Y147300D01*
X278921D01*
X279735Y147518D01*
X280465Y147939D01*
X281061Y148535D01*
X281482Y149265D01*
X281700Y150079D01*
Y150921D01*
X281482Y151735D01*
X281061Y152465D01*
X280465Y153061D01*
X279876Y153400D01*
Y162930D01*
X284570Y167624D01*
X294000D01*
X294527Y167728D01*
X294973Y168027D01*
X318973Y192027D01*
X318973Y192027D01*
X319272Y192473D01*
X319376Y193000D01*
X319376Y193000D01*
Y234930D01*
X323570Y239124D01*
X326152D01*
X326328Y238860D01*
X326661Y238638D01*
X327053Y238560D01*
X331600D01*
X331993Y238638D01*
X332325Y238860D01*
X332547Y239193D01*
X332625Y239585D01*
Y241415D01*
X332547Y241808D01*
X332325Y242140D01*
X331993Y242362D01*
X331600Y242440D01*
X327053D01*
X326661Y242362D01*
X326328Y242140D01*
X326152Y241877D01*
X323000D01*
X323000Y241877D01*
X322473Y241772D01*
X322027Y241473D01*
X317027Y236473D01*
X316728Y236027D01*
X316623Y235500D01*
Y193570D01*
X293430Y170376D01*
X291900D01*
X291748Y170876D01*
X291973Y171027D01*
X315473Y194527D01*
X315772Y194973D01*
X315877Y195500D01*
Y236430D01*
X323570Y244124D01*
X326152D01*
X326328Y243860D01*
X326661Y243638D01*
X327053Y243560D01*
X331600D01*
X331993Y243638D01*
X332325Y243860D01*
X332547Y244193D01*
X332625Y244585D01*
Y246415D01*
X332582Y246634D01*
X332595Y246699D01*
X332832Y247038D01*
X332937Y247124D01*
X337556D01*
Y245300D01*
X343444D01*
Y251700D01*
X337556D01*
Y249876D01*
X333255D01*
X332625Y250506D01*
Y251415D01*
X332547Y251807D01*
X332325Y252140D01*
X331993Y252362D01*
X331600Y252440D01*
D02*
G37*
G36*
X351736Y248000D02*
X348992D01*
Y245000D01*
X351736D01*
Y248000D01*
D02*
G37*
G36*
X347992D02*
X345248D01*
Y245000D01*
X347992D01*
Y248000D01*
D02*
G37*
G36*
X309947Y252440D02*
X305400D01*
X305007Y252362D01*
X304675Y252140D01*
X304453Y251807D01*
X304375Y251415D01*
Y250506D01*
X296235Y242366D01*
X296124Y242200D01*
X296079D01*
X295265Y241982D01*
X294535Y241561D01*
X293939Y240965D01*
X293518Y240235D01*
X293300Y239421D01*
Y238579D01*
X293518Y237765D01*
X293939Y237035D01*
X294535Y236439D01*
X295265Y236018D01*
X296079Y235800D01*
X296921D01*
X297735Y236018D01*
X298465Y236439D01*
X299061Y237035D01*
X299482Y237765D01*
X299700Y238579D01*
Y239421D01*
X299482Y240235D01*
X299061Y240965D01*
X298893Y241132D01*
X303875Y246113D01*
X304375Y245906D01*
Y244585D01*
X304453Y244193D01*
X304675Y243860D01*
X305007Y243638D01*
X305400Y243560D01*
X309947D01*
X310339Y243638D01*
X310671Y243860D01*
X310894Y244193D01*
X310972Y244585D01*
Y246415D01*
X310894Y246808D01*
X310671Y247140D01*
X310339Y247362D01*
X309947Y247440D01*
X305909D01*
X305702Y247940D01*
X306321Y248560D01*
X309947D01*
X310339Y248638D01*
X310671Y248860D01*
X310894Y249193D01*
X310972Y249585D01*
Y251415D01*
X310894Y251807D01*
X310671Y252140D01*
X310339Y252362D01*
X309947Y252440D01*
D02*
G37*
G36*
X194865Y279361D02*
X189135D01*
Y275205D01*
X192210D01*
X192378Y275172D01*
X192378Y275172D01*
X193877D01*
X197106Y271943D01*
Y253661D01*
X197238Y252998D01*
X197613Y252435D01*
X206774Y243274D01*
X207337Y242899D01*
X208000Y242767D01*
X210879D01*
Y240150D01*
X217121D01*
Y242767D01*
X225002D01*
X225316Y242557D01*
X225696Y242482D01*
X230304D01*
X230684Y242557D01*
X231007Y242773D01*
X231222Y243095D01*
X231298Y243476D01*
Y246588D01*
X231222Y246968D01*
X231007Y247290D01*
X230684Y247506D01*
X230304Y247581D01*
X225696D01*
X225316Y247506D01*
X224993Y247290D01*
X224778Y246968D01*
X224702Y246588D01*
Y246233D01*
X217121D01*
Y248401D01*
X210879D01*
Y246233D01*
X208718D01*
X200572Y254379D01*
Y272661D01*
X200440Y273324D01*
X200065Y273887D01*
X195820Y278131D01*
X195258Y278507D01*
X194865Y278585D01*
Y279361D01*
D02*
G37*
G36*
X347440Y239212D02*
X338560D01*
Y239101D01*
X335724D01*
X335724Y239101D01*
X335198Y238996D01*
X334751Y238698D01*
X334751Y238698D01*
X332965Y236912D01*
X332457Y236942D01*
X332325Y237140D01*
X331993Y237362D01*
X331600Y237440D01*
X327053D01*
X326661Y237362D01*
X326328Y237140D01*
X326106Y236807D01*
X326028Y236415D01*
Y234585D01*
X326106Y234192D01*
X326328Y233860D01*
X326661Y233638D01*
X327053Y233560D01*
X331600D01*
X331993Y233638D01*
X332325Y233860D01*
X332501Y234123D01*
X333500D01*
X334027Y234228D01*
X334473Y234527D01*
X336295Y236348D01*
X338560D01*
Y236237D01*
X347440D01*
Y239212D01*
D02*
G37*
G36*
X309947Y242440D02*
X305400D01*
X305007Y242362D01*
X304675Y242140D01*
X304453Y241808D01*
X304375Y241415D01*
Y239585D01*
X304453Y239193D01*
X304675Y238860D01*
X305007Y238638D01*
X305400Y238560D01*
X309947D01*
X310339Y238638D01*
X310671Y238860D01*
X310894Y239193D01*
X310972Y239585D01*
Y241415D01*
X310894Y241808D01*
X310671Y242140D01*
X310339Y242362D01*
X309947Y242440D01*
D02*
G37*
G36*
X217421Y238150D02*
X214500D01*
Y234224D01*
X217421D01*
Y238150D01*
D02*
G37*
G36*
X213500D02*
X210579D01*
Y234224D01*
X213500D01*
Y238150D01*
D02*
G37*
G36*
X309947Y237440D02*
X305400D01*
X305007Y237362D01*
X304675Y237140D01*
X304453Y236807D01*
X304375Y236415D01*
Y234585D01*
X304453Y234192D01*
X304675Y233860D01*
X305007Y233638D01*
X305400Y233560D01*
X309947D01*
X310339Y233638D01*
X310671Y233860D01*
X310894Y234192D01*
X310972Y234585D01*
Y236415D01*
X310894Y236807D01*
X310671Y237140D01*
X310339Y237362D01*
X309947Y237440D01*
D02*
G37*
G36*
X347740Y234787D02*
X343500D01*
Y233500D01*
X347740D01*
Y234787D01*
D02*
G37*
G36*
X342500D02*
X338260D01*
Y233500D01*
X342500D01*
Y234787D01*
D02*
G37*
G36*
X347740Y232500D02*
X343500D01*
Y231213D01*
X347740D01*
Y232500D01*
D02*
G37*
G36*
X342500D02*
X338260D01*
Y231213D01*
X342500D01*
Y232500D01*
D02*
G37*
G36*
X194097Y240224D02*
X192903D01*
X191748Y239914D01*
X190713Y239317D01*
X189868Y238472D01*
X189271Y237437D01*
X188961Y236282D01*
Y235087D01*
X189271Y233933D01*
X189868Y232898D01*
X190713Y232053D01*
X191748Y231456D01*
X192903Y231146D01*
X194097D01*
X195252Y231456D01*
X196287Y232053D01*
X197132Y232898D01*
X197729Y233933D01*
X198039Y235087D01*
Y236282D01*
X197729Y237437D01*
X197132Y238472D01*
X196287Y239317D01*
X195252Y239914D01*
X194097Y240224D01*
D02*
G37*
G36*
X217421Y233224D02*
X214500D01*
Y229299D01*
X217421D01*
Y233224D01*
D02*
G37*
G36*
X213500D02*
X210579D01*
Y229299D01*
X213500D01*
Y233224D01*
D02*
G37*
G36*
X256530Y243115D02*
X252147D01*
X251722Y243031D01*
X251363Y242791D01*
X251123Y242431D01*
X251038Y242007D01*
Y230025D01*
X251123Y229601D01*
X251363Y229241D01*
X251722Y229001D01*
X252147Y228917D01*
X256530D01*
X256954Y229001D01*
X257314Y229241D01*
X257554Y229601D01*
X257638Y230025D01*
Y242007D01*
X257554Y242431D01*
X257314Y242791D01*
X256954Y243031D01*
X256530Y243115D01*
D02*
G37*
G36*
X309947Y232440D02*
X305400D01*
X305007Y232362D01*
X304675Y232140D01*
X304453Y231807D01*
X304375Y231415D01*
Y229585D01*
X304453Y229192D01*
X304675Y228860D01*
X305007Y228638D01*
X305400Y228560D01*
X309947D01*
X310339Y228638D01*
X310671Y228860D01*
X310894Y229192D01*
X310972Y229585D01*
Y231415D01*
X310894Y231807D01*
X310671Y232140D01*
X310339Y232362D01*
X309947Y232440D01*
D02*
G37*
G36*
X230304Y229856D02*
X228500D01*
Y227500D01*
X231604D01*
Y228556D01*
X231505Y229053D01*
X231223Y229475D01*
X230802Y229757D01*
X230304Y229856D01*
D02*
G37*
G36*
X227500D02*
X225696D01*
X225199Y229757D01*
X224777Y229475D01*
X224495Y229053D01*
X224396Y228556D01*
Y227500D01*
X227500D01*
Y229856D01*
D02*
G37*
G36*
X331600Y232440D02*
X327053D01*
X326661Y232362D01*
X326328Y232140D01*
X326106Y231807D01*
X326028Y231415D01*
Y229585D01*
X326106Y229192D01*
X326328Y228860D01*
X326661Y228638D01*
X327053Y228560D01*
X331600D01*
X331993Y228638D01*
X332325Y228860D01*
X332501Y229123D01*
X333430D01*
X335251Y227302D01*
X335251Y227302D01*
X335698Y227004D01*
X336224Y226899D01*
X336224Y226899D01*
X338560D01*
Y226788D01*
X347440D01*
Y229763D01*
X338560D01*
Y229652D01*
X336794D01*
X334973Y231473D01*
X334527Y231772D01*
X334000Y231876D01*
X332501D01*
X332325Y232140D01*
X331993Y232362D01*
X331600Y232440D01*
D02*
G37*
G36*
X231604Y226500D02*
X228500D01*
Y224144D01*
X230304D01*
X230802Y224243D01*
X231223Y224525D01*
X231505Y224947D01*
X231604Y225444D01*
Y226500D01*
D02*
G37*
G36*
X227500D02*
X224396D01*
Y225444D01*
X224495Y224947D01*
X224777Y224525D01*
X225199Y224243D01*
X225696Y224144D01*
X227500D01*
Y226500D01*
D02*
G37*
G36*
X229244Y219500D02*
X226500D01*
Y216500D01*
X229244D01*
Y219500D01*
D02*
G37*
G36*
X225500D02*
X222756D01*
Y216500D01*
X225500D01*
Y219500D01*
D02*
G37*
G36*
X229244Y215500D02*
X226500D01*
Y212500D01*
X229244D01*
Y215500D01*
D02*
G37*
G36*
X225500D02*
X222756D01*
Y212500D01*
X225500D01*
Y215500D01*
D02*
G37*
G36*
X194097Y220538D02*
X192903D01*
X191748Y220229D01*
X190713Y219632D01*
X189868Y218787D01*
X189271Y217752D01*
X188961Y216598D01*
Y215402D01*
X189271Y214248D01*
X189868Y213213D01*
X190713Y212368D01*
X191748Y211771D01*
X192903Y211461D01*
X194097D01*
X195252Y211771D01*
X196287Y212368D01*
X197132Y213213D01*
X197729Y214248D01*
X198039Y215402D01*
Y216598D01*
X197729Y217752D01*
X197132Y218787D01*
X196287Y219632D01*
X195252Y220229D01*
X194097Y220538D01*
D02*
G37*
G36*
X234425Y209921D02*
X230500D01*
Y207000D01*
X234425D01*
Y209921D01*
D02*
G37*
G36*
X229500D02*
X225575D01*
Y207000D01*
X229500D01*
Y209921D01*
D02*
G37*
G36*
X367598Y216039D02*
X366403D01*
X365248Y215729D01*
X364213Y215132D01*
X363368Y214287D01*
X362771Y213252D01*
X362461Y212098D01*
Y210903D01*
X362771Y209748D01*
X363368Y208713D01*
X364213Y207868D01*
X365248Y207271D01*
X366403Y206961D01*
X367598D01*
X368752Y207271D01*
X369787Y207868D01*
X370632Y208713D01*
X371229Y209748D01*
X371539Y210903D01*
Y212098D01*
X371229Y213252D01*
X370632Y214287D01*
X369787Y215132D01*
X368752Y215729D01*
X367598Y216039D01*
D02*
G37*
G36*
X234425Y206000D02*
X230500D01*
Y203079D01*
X234425D01*
Y206000D01*
D02*
G37*
G36*
X229500D02*
X225575D01*
Y203079D01*
X229500D01*
Y206000D01*
D02*
G37*
G36*
X194097Y200853D02*
X192903D01*
X191748Y200544D01*
X190713Y199947D01*
X189868Y199102D01*
X189271Y198067D01*
X188961Y196913D01*
Y195718D01*
X189271Y194563D01*
X189868Y193528D01*
X190713Y192683D01*
X191748Y192086D01*
X192903Y191776D01*
X194097D01*
X195252Y192086D01*
X196287Y192683D01*
X197132Y193528D01*
X197729Y194563D01*
X198039Y195718D01*
Y196913D01*
X197729Y198067D01*
X197132Y199102D01*
X196287Y199947D01*
X195252Y200544D01*
X194097Y200853D01*
D02*
G37*
G36*
X229236Y191500D02*
X226492D01*
Y188500D01*
X229236D01*
Y191500D01*
D02*
G37*
G36*
X225492D02*
X222748D01*
Y188500D01*
X225492D01*
Y191500D01*
D02*
G37*
G36*
X228936Y199700D02*
X223048D01*
Y193300D01*
X228936D01*
Y194821D01*
X231859D01*
X234635Y192045D01*
Y187965D01*
X240365D01*
Y194287D01*
X236286D01*
X233402Y197170D01*
X232956Y197469D01*
X232429Y197573D01*
X228936D01*
Y199700D01*
D02*
G37*
G36*
X367598Y196354D02*
X366403D01*
X365248Y196044D01*
X364213Y195447D01*
X363368Y194602D01*
X362771Y193567D01*
X362461Y192412D01*
Y191218D01*
X362771Y190063D01*
X363368Y189028D01*
X364213Y188183D01*
X365248Y187586D01*
X366403Y187276D01*
X367598D01*
X368752Y187586D01*
X369787Y188183D01*
X370632Y189028D01*
X371229Y190063D01*
X371539Y191218D01*
Y192412D01*
X371229Y193567D01*
X370632Y194602D01*
X369787Y195447D01*
X368752Y196044D01*
X367598Y196354D01*
D02*
G37*
G36*
X229236Y187500D02*
X226492D01*
Y184500D01*
X229236D01*
Y187500D01*
D02*
G37*
G36*
X225492D02*
X222748D01*
Y184500D01*
X225492D01*
Y187500D01*
D02*
G37*
G36*
X240665Y185335D02*
X238000D01*
Y182374D01*
X240665D01*
Y185335D01*
D02*
G37*
G36*
X237000D02*
X234335D01*
Y182374D01*
X237000D01*
Y185335D01*
D02*
G37*
G36*
X229236Y183500D02*
X226492D01*
Y180500D01*
X229236D01*
Y183500D01*
D02*
G37*
G36*
X225492D02*
X222748D01*
Y180500D01*
X225492D01*
Y183500D01*
D02*
G37*
G36*
X240665Y181374D02*
X238000D01*
Y178413D01*
X240665D01*
Y181374D01*
D02*
G37*
G36*
X237000D02*
X234335D01*
Y178413D01*
X237000D01*
Y181374D01*
D02*
G37*
G36*
X229236Y179500D02*
X226492D01*
Y176500D01*
X229236D01*
Y179500D01*
D02*
G37*
G36*
X225492D02*
X222748D01*
Y176500D01*
X225492D01*
Y179500D01*
D02*
G37*
G36*
X319455Y184956D02*
X318545D01*
X317666Y184720D01*
X316878Y184265D01*
X316235Y183622D01*
X315780Y182834D01*
X315544Y181955D01*
Y181045D01*
X315780Y180166D01*
X316235Y179378D01*
X316878Y178735D01*
X317666Y178280D01*
X318545Y178044D01*
X319455D01*
X320334Y178280D01*
X321122Y178735D01*
X321765Y179378D01*
X322074Y179912D01*
X322573Y179778D01*
Y173222D01*
X322074Y173088D01*
X321765Y173622D01*
X321122Y174265D01*
X320334Y174720D01*
X319455Y174956D01*
X318545D01*
X317666Y174720D01*
X316878Y174265D01*
X316235Y173622D01*
X315780Y172834D01*
X315750Y172723D01*
X314500D01*
X314032Y172630D01*
X313635Y172365D01*
X309135Y167865D01*
X308870Y167468D01*
X308776Y167000D01*
Y151500D01*
X308870Y151032D01*
X309135Y150635D01*
X317962Y141808D01*
Y136871D01*
X317433Y136729D01*
X316398Y136132D01*
X315553Y135287D01*
X314956Y134252D01*
X314646Y133098D01*
Y131903D01*
X314956Y130748D01*
X315553Y129713D01*
X316398Y128868D01*
X317433Y128271D01*
X318587Y127961D01*
X319782D01*
X320937Y128271D01*
X321972Y128868D01*
X322817Y129713D01*
X323414Y130748D01*
X323724Y131903D01*
Y133098D01*
X323414Y134252D01*
X322817Y135287D01*
X321972Y136132D01*
X320937Y136729D01*
X320409Y136871D01*
Y142315D01*
X320315Y142783D01*
X320050Y143180D01*
X311224Y152007D01*
Y166493D01*
X315007Y170276D01*
X315750D01*
X315780Y170166D01*
X316235Y169378D01*
X316878Y168735D01*
X317666Y168280D01*
X318545Y168044D01*
X319455D01*
X320334Y168280D01*
X321122Y168735D01*
X321765Y169378D01*
X322074Y169912D01*
X322573Y169778D01*
Y163222D01*
X322074Y163088D01*
X321765Y163622D01*
X321122Y164265D01*
X320334Y164720D01*
X319455Y164956D01*
X318545D01*
X317666Y164720D01*
X316878Y164265D01*
X316235Y163622D01*
X315780Y162834D01*
X315544Y161955D01*
Y161045D01*
X315780Y160166D01*
X316235Y159378D01*
X316878Y158735D01*
X317666Y158280D01*
X318545Y158044D01*
X319455D01*
X320334Y158280D01*
X321122Y158735D01*
X321765Y159378D01*
X322074Y159912D01*
X322573Y159778D01*
Y148082D01*
X322572Y148080D01*
X322472Y147573D01*
X322572Y147066D01*
X322860Y146636D01*
X334861Y134634D01*
X334641Y134252D01*
X334331Y133098D01*
Y131903D01*
X334641Y130748D01*
X335238Y129713D01*
X336083Y128868D01*
X337118Y128271D01*
X338273Y127961D01*
X339468D01*
X340622Y128271D01*
X341657Y128868D01*
X342502Y129713D01*
X343099Y130748D01*
X343409Y131903D01*
Y133098D01*
X343099Y134252D01*
X342502Y135287D01*
X341657Y136132D01*
X340622Y136729D01*
X339468Y137039D01*
X338273D01*
X337118Y136729D01*
X336736Y136509D01*
X325021Y148224D01*
Y159782D01*
X325475Y160028D01*
X325521Y160015D01*
X325994Y159194D01*
X326694Y158494D01*
X327550Y158000D01*
X328500Y157746D01*
Y161500D01*
Y165254D01*
X327550Y165000D01*
X326694Y164506D01*
X325994Y163806D01*
X325521Y162985D01*
X325475Y162972D01*
X325021Y163218D01*
Y180914D01*
X324927Y181382D01*
X324662Y181779D01*
X324076Y182365D01*
X323679Y182630D01*
X323211Y182723D01*
X322250D01*
X322220Y182834D01*
X321765Y183622D01*
X321122Y184265D01*
X320334Y184720D01*
X319455Y184956D01*
D02*
G37*
G36*
X271175Y173500D02*
X268431D01*
Y170500D01*
X271175D01*
Y173500D01*
D02*
G37*
G36*
X267431D02*
X264687D01*
Y170500D01*
X267431D01*
Y173500D01*
D02*
G37*
G36*
X329455Y174956D02*
X328545D01*
X327666Y174720D01*
X326878Y174265D01*
X326235Y173622D01*
X325780Y172834D01*
X325544Y171955D01*
Y171045D01*
X325780Y170166D01*
X326235Y169378D01*
X326878Y168735D01*
X327666Y168280D01*
X328545Y168044D01*
X329455D01*
X330334Y168280D01*
X331122Y168735D01*
X331765Y169378D01*
X332220Y170166D01*
X332456Y171045D01*
Y171955D01*
X332220Y172834D01*
X331765Y173622D01*
X331122Y174265D01*
X330334Y174720D01*
X329455Y174956D01*
D02*
G37*
G36*
X271175Y169500D02*
X268431D01*
Y166500D01*
X271175D01*
Y169500D01*
D02*
G37*
G36*
X267431D02*
X264687D01*
Y166500D01*
X267431D01*
Y169500D01*
D02*
G37*
G36*
X194097Y175039D02*
X192903D01*
X191748Y174729D01*
X190713Y174132D01*
X189868Y173287D01*
X189271Y172252D01*
X188961Y171098D01*
Y169903D01*
X189271Y168748D01*
X189868Y167713D01*
X190713Y166868D01*
X191748Y166271D01*
X192903Y165961D01*
X194097D01*
X195252Y166271D01*
X196287Y166868D01*
X197132Y167713D01*
X197729Y168748D01*
X198039Y169903D01*
Y171098D01*
X197729Y172252D01*
X197132Y173287D01*
X196287Y174132D01*
X195252Y174729D01*
X194097Y175039D01*
D02*
G37*
G36*
X270740Y165500D02*
X267996D01*
Y162500D01*
X270740D01*
Y165500D01*
D02*
G37*
G36*
X266996D02*
X264252D01*
Y162500D01*
X266996D01*
Y165500D01*
D02*
G37*
G36*
X329500Y165254D02*
Y162000D01*
X332754D01*
X332500Y162950D01*
X332006Y163806D01*
X331306Y164506D01*
X330450Y165000D01*
X329500Y165254D01*
D02*
G37*
G36*
X270740Y161500D02*
X267996D01*
Y158500D01*
X270740D01*
Y161500D01*
D02*
G37*
G36*
X266996D02*
X264252D01*
Y158500D01*
X266996D01*
Y161500D01*
D02*
G37*
G36*
X332754Y161000D02*
X329500D01*
Y157746D01*
X330450Y158000D01*
X331306Y158494D01*
X332006Y159194D01*
X332500Y160050D01*
X332754Y161000D01*
D02*
G37*
G36*
X229098Y161070D02*
X219233D01*
Y155930D01*
X229098D01*
Y161070D01*
D02*
G37*
G36*
X229398Y152315D02*
X224665D01*
Y149945D01*
X229398D01*
Y152315D01*
D02*
G37*
G36*
X223665D02*
X218933D01*
Y149945D01*
X223665D01*
Y152315D01*
D02*
G37*
G36*
X374500Y309233D02*
X203000D01*
X202337Y309101D01*
X201774Y308726D01*
X195274Y302226D01*
X194899Y301663D01*
X194767Y301000D01*
Y297078D01*
X189135D01*
Y292922D01*
X194767D01*
Y292161D01*
X193811Y291206D01*
X192378D01*
X192378Y291206D01*
X192210Y291172D01*
X189135D01*
Y287017D01*
X194865D01*
Y287806D01*
X195193Y287871D01*
X195755Y288247D01*
X197726Y290218D01*
X198101Y290780D01*
X198233Y291443D01*
Y300282D01*
X203718Y305767D01*
X373782D01*
X378767Y300782D01*
Y152718D01*
X374282Y148233D01*
X371234D01*
X371229Y148252D01*
X370632Y149287D01*
X369787Y150132D01*
X368752Y150729D01*
X367598Y151039D01*
X366403D01*
X365248Y150729D01*
X364213Y150132D01*
X363368Y149287D01*
X362771Y148252D01*
X362461Y147098D01*
Y145903D01*
X362771Y144748D01*
X363368Y143713D01*
X364213Y142868D01*
X365248Y142271D01*
X366403Y141961D01*
X367598D01*
X368752Y142271D01*
X369787Y142868D01*
X370632Y143713D01*
X371229Y144748D01*
X371234Y144767D01*
X375000D01*
X375663Y144899D01*
X376226Y145274D01*
X381726Y150774D01*
X381726Y150774D01*
X382101Y151337D01*
X382233Y152000D01*
Y301500D01*
X382101Y302163D01*
X381726Y302726D01*
X375726Y308726D01*
X375163Y309101D01*
X374500Y309233D01*
D02*
G37*
G36*
X229398Y148945D02*
X224665D01*
Y146575D01*
X229398D01*
Y148945D01*
D02*
G37*
G36*
X223665D02*
X218933D01*
Y146575D01*
X223665D01*
Y148945D01*
D02*
G37*
G36*
X194097Y155354D02*
X192903D01*
X191748Y155044D01*
X190713Y154447D01*
X189868Y153602D01*
X189271Y152567D01*
X188961Y151412D01*
Y150217D01*
X189271Y149063D01*
X189868Y148028D01*
X190713Y147183D01*
X191748Y146586D01*
X192903Y146276D01*
X194097D01*
X195252Y146586D01*
X196287Y147183D01*
X197132Y148028D01*
X197729Y149063D01*
X198039Y150217D01*
Y151412D01*
X197729Y152567D01*
X197132Y153602D01*
X196287Y154447D01*
X195252Y155044D01*
X194097Y155354D01*
D02*
G37*
G36*
X258758Y139771D02*
X258035Y139676D01*
X257362Y139397D01*
X256784Y138954D01*
X256341Y138376D01*
X256062Y137703D01*
X255967Y136980D01*
Y132846D01*
X256062Y132124D01*
X256341Y131451D01*
X256784Y130873D01*
X257362Y130430D01*
X258035Y130151D01*
X258758Y130056D01*
X259480Y130151D01*
X260153Y130430D01*
X260731Y130873D01*
X261175Y131451D01*
X261454Y132124D01*
X261549Y132846D01*
Y136980D01*
X261454Y137703D01*
X261175Y138376D01*
X260731Y138954D01*
X260153Y139397D01*
X259480Y139676D01*
X258758Y139771D01*
D02*
G37*
G36*
X239663D02*
X238941Y139676D01*
X238268Y139397D01*
X237690Y138954D01*
X237246Y138376D01*
X236968Y137703D01*
X236873Y136980D01*
Y132846D01*
X236968Y132124D01*
X237246Y131451D01*
X237690Y130873D01*
X238268Y130430D01*
X238941Y130151D01*
X239663Y130056D01*
X240386Y130151D01*
X241059Y130430D01*
X241637Y130873D01*
X242080Y131451D01*
X242359Y132124D01*
X242454Y132846D01*
Y136980D01*
X242359Y137703D01*
X242080Y138376D01*
X241637Y138954D01*
X241059Y139397D01*
X240386Y139676D01*
X239663Y139771D01*
D02*
G37*
G36*
X300097Y137039D02*
X298903D01*
X297748Y136729D01*
X296713Y136132D01*
X295868Y135287D01*
X295271Y134252D01*
X294961Y133098D01*
Y131903D01*
X295271Y130748D01*
X295868Y129713D01*
X296713Y128868D01*
X297748Y128271D01*
X298903Y127961D01*
X300097D01*
X301252Y128271D01*
X302287Y128868D01*
X303132Y129713D01*
X303729Y130748D01*
X304039Y131903D01*
Y133098D01*
X303729Y134252D01*
X303132Y135287D01*
X302287Y136132D01*
X301252Y136729D01*
X300097Y137039D01*
D02*
G37*
G36*
X367637Y131654D02*
X367500D01*
Y127315D01*
X371839D01*
Y127452D01*
X371509Y128683D01*
X370872Y129786D01*
X369971Y130687D01*
X368868Y131324D01*
X367637Y131654D01*
D02*
G37*
G36*
X366500D02*
X366363D01*
X365132Y131324D01*
X364029Y130687D01*
X363128Y129786D01*
X362491Y128683D01*
X362161Y127452D01*
Y127315D01*
X366500D01*
Y131654D01*
D02*
G37*
G36*
X194097Y135669D02*
X192903D01*
X191748Y135359D01*
X190713Y134762D01*
X189868Y133917D01*
X189271Y132882D01*
X188961Y131728D01*
Y130533D01*
X189271Y129378D01*
X189868Y128343D01*
X190713Y127498D01*
X191748Y126901D01*
X192903Y126591D01*
X194097D01*
X195252Y126901D01*
X196287Y127498D01*
X197132Y128343D01*
X197729Y129378D01*
X198039Y130533D01*
Y131728D01*
X197729Y132882D01*
X197132Y133917D01*
X196287Y134762D01*
X195252Y135359D01*
X194097Y135669D01*
D02*
G37*
G36*
X371839Y126315D02*
X367500D01*
Y121976D01*
X367637D01*
X368868Y122306D01*
X369971Y122943D01*
X370872Y123844D01*
X371509Y124947D01*
X371839Y126178D01*
Y126315D01*
D02*
G37*
G36*
X366500D02*
X362161D01*
Y126178D01*
X362491Y124947D01*
X363128Y123844D01*
X364029Y122943D01*
X365132Y122306D01*
X366363Y121976D01*
X366500D01*
Y126315D01*
D02*
G37*
G36*
X259939Y128435D02*
X259140Y128330D01*
X258395Y128021D01*
X257755Y127530D01*
X257264Y126891D01*
X256956Y126146D01*
X256850Y125346D01*
Y120622D01*
X256956Y119823D01*
X257264Y119078D01*
X257755Y118438D01*
X258395Y117947D01*
X259140Y117639D01*
X259939Y117533D01*
X260738Y117639D01*
X261483Y117947D01*
X262123Y118438D01*
X262614Y119078D01*
X262922Y119823D01*
X263028Y120622D01*
Y125346D01*
X262922Y126146D01*
X262614Y126891D01*
X262123Y127530D01*
X261483Y128021D01*
X260738Y128330D01*
X259939Y128435D01*
D02*
G37*
G36*
X238482D02*
X237683Y128330D01*
X236938Y128021D01*
X236298Y127530D01*
X235808Y126891D01*
X235499Y126146D01*
X235394Y125346D01*
Y120622D01*
X235499Y119823D01*
X235808Y119078D01*
X236298Y118438D01*
X236938Y117947D01*
X237683Y117639D01*
X238482Y117533D01*
X239282Y117639D01*
X240027Y117947D01*
X240666Y118438D01*
X241157Y119078D01*
X241466Y119823D01*
X241571Y120622D01*
Y125346D01*
X241466Y126146D01*
X241157Y126891D01*
X240666Y127530D01*
X240027Y128021D01*
X239282Y128330D01*
X238482Y128435D01*
D02*
G37*
%LPD*%
D15*
X319000Y181500D02*
X323211D01*
X323797Y180914D01*
Y147573D02*
Y180914D01*
X314500Y171500D02*
X319000D01*
X310000Y167000D02*
X314500Y171500D01*
X310000Y151500D02*
Y167000D01*
Y151500D02*
X319185Y142315D01*
Y132500D02*
Y142315D01*
D37*
X218000Y180000D02*
D03*
X225992D02*
D03*
Y188000D02*
D03*
X218000D02*
D03*
X288504Y265500D02*
D03*
X296496D02*
D03*
X259504Y162000D02*
D03*
X267496D02*
D03*
X259939Y170000D02*
D03*
X267931D02*
D03*
X293492Y272500D02*
D03*
X285500D02*
D03*
X348492Y248500D02*
D03*
X340500D02*
D03*
X226000Y216000D02*
D03*
X218008D02*
D03*
X218000Y196500D02*
D03*
X225992D02*
D03*
D39*
X343000Y233000D02*
D03*
Y237724D02*
D03*
Y228276D02*
D03*
D40*
X275626Y271996D02*
D03*
Y264004D02*
D03*
D50*
X246000Y229500D02*
Y245500D01*
Y229500D02*
X253500Y222000D01*
X246000Y245500D02*
X256315Y255815D01*
X243000Y210000D02*
X247000Y206000D01*
X236630Y252370D02*
X243000Y246000D01*
Y210000D02*
Y246000D01*
X253500Y208500D02*
Y222000D01*
X289500Y258500D02*
X290000Y258000D01*
X296496D01*
X199000Y284500D02*
X202764Y288264D01*
X182000Y284500D02*
X199000D01*
X175500Y278000D02*
X182000Y284500D01*
X202764Y288264D02*
X208933D01*
X175500Y241500D02*
Y278000D01*
Y241500D02*
X191500Y225500D01*
X296496Y265244D02*
Y265500D01*
Y258000D02*
Y265244D01*
Y248496D02*
Y258000D01*
X294646Y263650D02*
X294902D01*
X296752Y265756D02*
X307417D01*
X294902Y263650D02*
X296496Y265244D01*
Y265500D02*
X296752Y265756D01*
X307417D02*
X307673Y265500D01*
X289792Y241792D02*
X296496Y248496D01*
X221949Y206500D02*
X221953Y206504D01*
X235985Y192937D02*
X237500Y191421D01*
X232429Y196197D02*
X235689Y192937D01*
X226295Y196197D02*
X232429D01*
X237500Y191126D02*
Y191421D01*
X235689Y192937D02*
X235985D01*
X225992Y196500D02*
X226295Y196197D01*
X221000Y226730D02*
Y233000D01*
X218008Y223739D02*
X221000Y226730D01*
X216247Y225500D02*
X218008Y223739D01*
X191500Y225500D02*
X216247D01*
X214055Y167555D02*
X221803D01*
X218000Y171358D02*
X221803Y167555D01*
X224165D01*
X218000Y171358D02*
Y180000D01*
Y188000D01*
Y196500D01*
X219449Y197949D01*
Y206500D01*
Y214559D01*
X218008Y216000D02*
X219449Y214559D01*
X218008Y216000D02*
Y223739D01*
X229500Y252500D02*
Y264000D01*
Y252500D02*
X240000Y242000D01*
Y201500D02*
Y242000D01*
X236630Y252370D02*
Y293000D01*
X244000Y197500D02*
X248238D01*
X240000Y201500D02*
X244000Y197500D01*
X249000Y181195D02*
Y196739D01*
X248238Y197500D02*
X249000Y196739D01*
Y181195D02*
X259939Y170256D01*
Y170000D02*
Y170256D01*
X259000Y213500D02*
X263500Y218000D01*
Y248000D01*
X269500Y254000D01*
X221000Y233000D02*
X224016Y236016D01*
X289792Y198208D02*
Y241792D01*
Y198208D02*
X290500Y197500D01*
X212500Y138000D02*
Y166000D01*
Y124000D02*
Y138000D01*
X220000D01*
X284500Y191500D02*
X290500Y197500D01*
X278500Y191500D02*
X284500D01*
X332655Y184500D02*
X375500D01*
X329000Y181500D02*
X329655D01*
X332655Y184500D01*
X375500D02*
Y222685D01*
Y160500D02*
Y184500D01*
X275500Y250500D02*
Y263878D01*
X275626Y264004D01*
X268500Y223500D02*
Y243500D01*
X275500Y250500D01*
X269500Y254000D02*
Y286500D01*
X275882Y271996D02*
X277476Y273590D01*
Y275976D02*
X279500Y278000D01*
X275626Y271996D02*
X275882D01*
X277476Y273590D02*
Y275976D01*
X279500Y278000D02*
X314000D01*
X320000Y272000D01*
Y264000D02*
Y272000D01*
Y264000D02*
X323500Y260500D01*
X329327D01*
X269500Y286500D02*
X276000Y293000D01*
X297208Y241393D02*
X306315Y250500D01*
X296500Y239000D02*
X297208Y239708D01*
X306315Y250500D02*
X307673D01*
X297208Y239708D02*
Y241393D01*
X281500Y268244D02*
X285500Y272244D01*
X278500Y231000D02*
Y231293D01*
X281500Y234293D01*
Y268244D01*
X285500Y272244D02*
Y272500D01*
X312500D02*
X316000Y269000D01*
X293492Y272500D02*
X312500D01*
X316000Y261500D02*
Y269000D01*
Y261500D02*
X322000Y255500D01*
X329327D01*
X277835Y125500D02*
X278000D01*
X323000Y245500D02*
X329327D01*
X318000Y235500D02*
X323000Y240500D01*
X278500Y163500D02*
X284000Y169000D01*
X318000Y193000D02*
Y235500D01*
X314500Y195500D02*
Y237000D01*
X247000Y156335D02*
X277835Y125500D01*
X278500Y150500D02*
Y163500D01*
X294000Y169000D02*
X318000Y193000D01*
X284000Y169000D02*
X294000D01*
X314500Y237000D02*
X323000Y245500D01*
X291000Y172000D02*
X314500Y195500D01*
X365000Y157000D02*
X372000D01*
X375500Y160500D01*
X359000Y151000D02*
X365000Y157000D01*
X367000Y231185D02*
X375500Y222685D01*
X359000Y126000D02*
Y151000D01*
X350500Y126261D02*
Y149685D01*
X348238Y124000D02*
X350500Y126261D01*
Y149685D02*
X367000Y166185D01*
X279500Y124000D02*
X348238D01*
X278000Y125500D02*
X279500Y124000D01*
X247000Y156335D02*
Y158500D01*
X348000Y115000D02*
X359000Y126000D01*
X221500Y115000D02*
X348000D01*
X212500Y124000D02*
X221500Y115000D01*
X212500Y166000D02*
X214055Y167555D01*
X256315Y255815D02*
Y293000D01*
X223504Y168216D02*
X224165Y167555D01*
X323000Y240500D02*
X329327D01*
X267500Y146000D02*
X273500Y152000D01*
Y165000D01*
X280500Y172000D01*
X291000D01*
X329327Y260500D02*
X330685D01*
X332685Y248500D02*
X340500D01*
X330685Y250500D02*
X332685Y248500D01*
X329327Y250500D02*
X330685D01*
X336224Y228276D02*
X343000D01*
X334000Y230500D02*
X336224Y228276D01*
X329327Y230500D02*
X334000D01*
X335724Y237724D02*
X343000D01*
X333500Y235500D02*
X335724Y237724D01*
X329327Y235500D02*
X333500D01*
X259504Y169565D02*
X259939Y170000D01*
X259504Y162000D02*
Y169565D01*
X246917Y162000D02*
X259504D01*
X224016Y236016D02*
X228000D01*
D52*
X323797Y147573D02*
X338870Y132500D01*
D53*
X183929Y280236D02*
D03*
Y292047D02*
D03*
D54*
X208933Y258736D02*
D03*
Y268579D02*
D03*
Y278421D02*
D03*
D55*
Y288264D02*
D03*
D56*
X299500Y132500D02*
D03*
X319185D02*
D03*
X338870D02*
D03*
X367000Y126815D02*
D03*
Y146500D02*
D03*
Y166185D02*
D03*
Y191815D02*
D03*
Y211500D02*
D03*
Y231185D02*
D03*
Y257315D02*
D03*
Y277000D02*
D03*
Y296685D02*
D03*
X340685Y293000D02*
D03*
X321000D02*
D03*
X301315D02*
D03*
X276000D02*
D03*
X256315D02*
D03*
X236630D02*
D03*
X193500Y235685D02*
D03*
Y216000D02*
D03*
Y196315D02*
D03*
Y170500D02*
D03*
Y150815D02*
D03*
Y131130D02*
D03*
D57*
X263500Y267500D02*
D03*
X319000Y161500D02*
D03*
X329000D02*
D03*
Y171500D02*
D03*
X319000D02*
D03*
X329000Y181500D02*
D03*
X319000D02*
D03*
D58*
X259939Y122984D02*
D03*
X238482D02*
D03*
D59*
X258758Y134913D02*
D03*
X239663D02*
D03*
D60*
X247000Y206000D02*
D03*
X253500Y208500D02*
D03*
X289500Y258500D02*
D03*
X217000Y262000D02*
D03*
X229500Y264000D02*
D03*
X259000Y213500D02*
D03*
X220000Y138000D02*
D03*
X278500Y191500D02*
D03*
X290500Y197500D02*
D03*
X268500Y223500D02*
D03*
X296500Y239000D02*
D03*
X278500Y231000D02*
D03*
Y150500D02*
D03*
X267500Y146000D02*
D03*
D61*
X192000Y277284D02*
D03*
Y289094D02*
D03*
Y295000D02*
D03*
D62*
X188457Y271378D02*
D03*
X179402D02*
D03*
X188457Y300905D02*
D03*
X179402D02*
D03*
D63*
X247000Y158500D02*
D03*
D64*
X224165Y167555D02*
D03*
Y158500D02*
D03*
Y149445D02*
D03*
D65*
X237500Y181874D02*
D03*
Y191126D02*
D03*
D66*
X228000Y227000D02*
D03*
Y236016D02*
D03*
Y245032D02*
D03*
D67*
X254338Y236016D02*
D03*
D68*
X307673Y265500D02*
D03*
Y260500D02*
D03*
X329327Y230500D02*
D03*
X307673Y235500D02*
D03*
X329327D02*
D03*
Y245500D02*
D03*
X307673Y230500D02*
D03*
X329327Y240500D02*
D03*
X307673D02*
D03*
Y245500D02*
D03*
Y255500D02*
D03*
X329327Y250500D02*
D03*
Y255500D02*
D03*
Y265500D02*
D03*
X307673Y250500D02*
D03*
X329327Y260500D02*
D03*
D69*
X258758Y134913D02*
D03*
X239663D02*
D03*
D70*
X219449Y206500D02*
D03*
X230000D02*
D03*
D71*
X214000Y244276D02*
D03*
Y233724D02*
D03*
D72*
X192000Y277284D02*
X192378Y276905D01*
X198839Y253661D02*
Y272661D01*
X192378Y276905D02*
X194595D01*
X198839Y272661D01*
X192000Y289094D02*
X192378Y289472D01*
X194529D01*
X374500Y307500D02*
X380500Y301500D01*
X196500Y301000D02*
X203000Y307500D01*
X374500D01*
X208000Y244500D02*
X228315D01*
X198839Y253661D02*
X208000Y244500D01*
X228315D02*
X228831Y245016D01*
X196500Y291443D02*
Y301000D01*
X194529Y289472D02*
X196500Y291443D01*
X380500Y152000D02*
Y301500D01*
X375000Y146500D02*
X380500Y152000D01*
X367000Y146500D02*
X375000D01*
M02*
