G04*
G04 #@! TF.GenerationSoftware,Altium Limited,Altium Designer,23.3.1 (30)*
G04*
G04 Layer_Color=32896*
%FSLAX25Y25*%
%MOIN*%
G70*
G04*
G04 #@! TF.SameCoordinates,C0566122-47CB-4EAD-8267-09603FDD0119*
G04*
G04*
G04 #@! TF.FilePolarity,Positive*
G04*
G01*
G75*
%ADD10C,0.00787*%
%ADD13C,0.00500*%
%ADD15C,0.01000*%
D10*
X196331Y277284D02*
G03*
X196331Y277284I-394J0D01*
G01*
X217866Y149445D02*
G03*
X217866Y149445I-394J0D01*
G01*
X228571Y220307D02*
G03*
X228571Y220307I-394J0D01*
G01*
X329720Y270657D02*
G03*
X329720Y270657I-394J0D01*
G01*
X343394Y241268D02*
G03*
X343394Y241268I-394J0D01*
G01*
X214291Y206500D02*
G03*
X214291Y206500I-394J0D01*
G01*
X214394Y249827D02*
G03*
X214394Y249827I-394J0D01*
G01*
X235039Y185122D02*
Y187878D01*
X239961Y185122D02*
Y187878D01*
X221209Y177500D02*
X222783D01*
X221209Y182500D02*
X222783D01*
X221209Y190500D02*
X222783D01*
X221209Y185500D02*
X222783D01*
X291713Y263000D02*
X293287D01*
X291713Y268000D02*
X293287D01*
X262713Y159500D02*
X264287D01*
X262713Y164500D02*
X264287D01*
X263148Y167500D02*
X264722D01*
X263148Y172500D02*
X264722D01*
X288709Y275000D02*
X290283D01*
X288709Y270000D02*
X290283D01*
X273126Y267212D02*
Y268787D01*
X278126Y267212D02*
Y268787D01*
X343709Y251000D02*
X345283D01*
X343709Y246000D02*
X345283D01*
X221217Y218500D02*
X222791D01*
X221217Y213500D02*
X222791D01*
X221209Y194000D02*
X222784D01*
X221209Y199000D02*
X222784D01*
D13*
X172709Y280236D02*
X178614D01*
X172709D02*
Y286142D01*
X178614D01*
X181961Y272953D02*
X185898D01*
X189244Y274331D02*
Y297953D01*
X178614Y274331D02*
Y297953D01*
X181961Y299331D02*
X185898D01*
X228693Y171295D02*
X242472D01*
Y166413D02*
Y171295D01*
X228693Y145705D02*
X242472D01*
Y150587D01*
X234270Y223211D02*
X248069D01*
Y248821D01*
X234270D02*
X248069D01*
X234270Y223211D02*
Y248821D01*
X311512Y228315D02*
X325488D01*
X311512Y267685D02*
X325488D01*
X340441Y239772D02*
X345559D01*
X340441Y226228D02*
X345559D01*
X223543Y203350D02*
X225906D01*
X223543Y209650D02*
X225906D01*
X210850Y237819D02*
Y240181D01*
X217150Y237819D02*
Y240181D01*
D15*
X186999Y311499D02*
X187999Y312499D01*
X189998D01*
X190998Y311499D01*
Y310500D01*
X189998Y309500D01*
X187999D01*
X186999Y308500D01*
Y307501D01*
X187999Y306501D01*
X189998D01*
X190998Y307501D01*
X185000Y312499D02*
Y306501D01*
X183000Y308500D01*
X181001Y306501D01*
Y312499D01*
X179002Y306501D02*
X177002D01*
X178002D01*
Y312499D01*
X179002Y311499D01*
X347498Y223499D02*
Y222499D01*
X345499Y220500D01*
X343500Y222499D01*
Y223499D01*
X345499Y220500D02*
Y217501D01*
X337502D02*
X341500D01*
X337502Y221500D01*
Y222499D01*
X338501Y223499D01*
X340501D01*
X341500Y222499D01*
X266999Y179999D02*
X267999Y180999D01*
X269998D01*
X270998Y179999D01*
Y176001D01*
X269998Y175001D01*
X267999D01*
X266999Y176001D01*
X265000Y175001D02*
X263000D01*
X264000D01*
Y180999D01*
X265000Y179999D01*
X260001Y175001D02*
X258002D01*
X259002D01*
Y180999D01*
X260001Y179999D01*
X209999Y217499D02*
X210999Y218499D01*
X212998D01*
X213998Y217499D01*
Y213501D01*
X212998Y212501D01*
X210999D01*
X209999Y213501D01*
X207999Y212501D02*
X206000D01*
X207000D01*
Y218499D01*
X207999Y217499D01*
X203001D02*
X202001Y218499D01*
X200002D01*
X199002Y217499D01*
Y213501D01*
X200002Y212501D01*
X202001D01*
X203001Y213501D01*
Y217499D01*
X333998Y278499D02*
Y273501D01*
X332999Y272501D01*
X330999D01*
X330000Y273501D01*
Y278499D01*
X328000Y277499D02*
X327001Y278499D01*
X325001D01*
X324002Y277499D01*
Y276500D01*
X325001Y275500D01*
X326001D01*
X325001D01*
X324002Y274500D01*
Y273501D01*
X325001Y272501D01*
X327001D01*
X328000Y273501D01*
X257998Y147499D02*
Y143500D01*
X255998Y141501D01*
X253999Y143500D01*
Y147499D01*
X252000Y141501D02*
Y147499D01*
X249001D01*
X248001Y146499D01*
Y144500D01*
X249001Y143500D01*
X252000D01*
X250000D02*
X248001Y141501D01*
X246002D02*
X244002D01*
X245002D01*
Y147499D01*
X246002Y146499D01*
X270502Y258999D02*
Y253001D01*
X273501D01*
X274500Y254001D01*
Y256000D01*
X273501Y257000D01*
X270502D01*
X272501D02*
X274500Y258999D01*
X279499D02*
Y253001D01*
X276500Y256000D01*
X280498D01*
X294998Y277001D02*
Y282999D01*
X291999D01*
X291000Y281999D01*
Y280000D01*
X291999Y279000D01*
X294998D01*
X292999D02*
X291000Y277001D01*
X289000Y281999D02*
X288001Y282999D01*
X286001D01*
X285002Y281999D01*
Y281000D01*
X286001Y280000D01*
X287001D01*
X286001D01*
X285002Y279000D01*
Y278001D01*
X286001Y277001D01*
X288001D01*
X289000Y278001D01*
X343500Y257999D02*
X344499Y258999D01*
X346499D01*
X347498Y257999D01*
Y254001D01*
X346499Y253001D01*
X344499D01*
X343500Y254001D01*
X341500D02*
X340501Y253001D01*
X338501D01*
X337502Y254001D01*
Y257999D01*
X338501Y258999D01*
X340501D01*
X341500Y257999D01*
Y257000D01*
X340501Y256000D01*
X337502D01*
X203000Y235501D02*
X202001Y234501D01*
X200001D01*
X199002Y235501D01*
Y239499D01*
X200001Y240499D01*
X202001D01*
X203000Y239499D01*
X205000Y235501D02*
X205999Y234501D01*
X207999D01*
X208998Y235501D01*
Y236500D01*
X207999Y237500D01*
X208998Y238500D01*
Y239499D01*
X207999Y240499D01*
X205999D01*
X205000Y239499D01*
Y238500D01*
X205999Y237500D01*
X205000Y236500D01*
Y235501D01*
X205999Y237500D02*
X207999D01*
X298500Y258499D02*
X299499Y259499D01*
X301499D01*
X302498Y258499D01*
Y254501D01*
X301499Y253501D01*
X299499D01*
X298500Y254501D01*
X296500Y259499D02*
X292502D01*
Y258499D01*
X296500Y254501D01*
Y253501D01*
X265000Y155999D02*
X265999Y156999D01*
X267999D01*
X268998Y155999D01*
Y152001D01*
X267999Y151001D01*
X265999D01*
X265000Y152001D01*
X260001Y151001D02*
Y156999D01*
X263000Y154000D01*
X259002D01*
X205500Y177001D02*
X204501Y176001D01*
X202501D01*
X201502Y177001D01*
Y180999D01*
X202501Y181999D01*
X204501D01*
X205500Y180999D01*
X207500Y177001D02*
X208499Y176001D01*
X210499D01*
X211498Y177001D01*
Y178000D01*
X210499Y179000D01*
X209499D01*
X210499D01*
X211498Y180000D01*
Y180999D01*
X210499Y181999D01*
X208499D01*
X207500Y180999D01*
X236499Y258999D02*
Y254001D01*
X235499Y253001D01*
X233500D01*
X232500Y254001D01*
Y258999D01*
X230501Y253001D02*
X228501D01*
X229501D01*
Y258999D01*
X230501Y257999D01*
X227600Y202400D02*
Y208398D01*
X224601D01*
X223601Y207398D01*
Y205399D01*
X224601Y204399D01*
X227600D01*
X225601D02*
X223601Y202400D01*
X221602D02*
X219603D01*
X220602D01*
Y208398D01*
X221602Y207398D01*
X263997Y189999D02*
Y184001D01*
X259998D01*
X254000Y189999D02*
X257999D01*
Y184001D01*
X254000D01*
X257999Y187000D02*
X255999D01*
X252001Y189999D02*
Y184001D01*
X249002D01*
X248002Y185001D01*
Y188999D01*
X249002Y189999D01*
X252001D01*
X246003Y184001D02*
X244003D01*
X245003D01*
Y189999D01*
X246003Y188999D01*
X207500Y189999D02*
X208499Y190999D01*
X210499D01*
X211498Y189999D01*
Y186001D01*
X210499Y185001D01*
X208499D01*
X207500Y186001D01*
X201502Y185001D02*
X205500D01*
X201502Y189000D01*
Y189999D01*
X202501Y190999D01*
X204501D01*
X205500Y189999D01*
X208000Y204501D02*
X207000Y203501D01*
X205001D01*
X204001Y204501D01*
Y208499D01*
X205001Y209499D01*
X207000D01*
X208000Y208499D01*
X209999Y209499D02*
X211999D01*
X210999D01*
Y203501D01*
X209999Y204501D01*
M02*
