M48
;Layer_Color=9474304
;FILE_FORMAT=2:5
INCH,LZ
;TYPE=PLATED
T3F00S00C0.02800
T4F00S00C0.03543
T5F00S00C0.03937
T6F00S00C0.05118
;TYPE=NON_PLATED
T7F00S00C0.03543
%
T03
X022Y0138
X02675Y0146
X02785Y01505
Y01915
X02905Y01975
X02785Y0231
X02685Y02235
X0259Y02135
X02535Y02085
X0247Y0206
X02295Y0264
X0217Y0262
X02895Y02585
X02965Y0239
T04
X0319Y01615
X0329
Y01715
X0319
Y01815
X0329
X02635Y02675
T05
X0208933Y0258736
Y0268579
Y0278421
Y0288264
T06
X01935Y013113
Y0150815
X02995Y01325
X0319185
X033887
X0367Y0126815
Y01465
Y0166185
Y0191815
Y02115
Y0231185
Y0257315
Y0277
Y0296685
X0340685Y0293
X0321
X0301315
X0276
X0256315
X023663
X01935Y0235685
Y0216
Y0196315
Y01705
T07
X0183929Y0280236
Y0292047
M30
